<svg width="699" height="136" viewBox="0 0 699 136" fill="none" xmlns="http://www.w3.org/2000/svg">
<path d="M7.54261 31H0.951705L10.9943 1.90909H18.9205L28.9489 31H22.358L15.071 8.55682H14.8438L7.54261 31ZM7.13068 19.5653H22.6989V24.3665H7.13068V19.5653ZM49.6342 31.3551C47.977 31.3551 46.4761 30.929 45.1314 30.0767C43.7962 29.215 42.7356 27.9508 41.9496 26.2841C41.1731 24.608 40.7848 22.553 40.7848 20.1193C40.7848 17.6193 41.1873 15.5407 41.9922 13.8835C42.7971 12.2169 43.8672 10.9716 45.2024 10.1477C46.5471 9.31439 48.0196 8.89773 49.62 8.89773C50.8416 8.89773 51.8596 9.10606 52.674 9.52273C53.4979 9.92992 54.1607 10.4413 54.6626 11.0568C55.174 11.6629 55.5623 12.2595 55.8274 12.8466H56.0121V1.90909H62.049V31H56.0831V27.5057H55.8274C55.5433 28.1117 55.1409 28.7131 54.62 29.3097C54.1087 29.8968 53.4411 30.3845 52.6172 30.7727C51.8028 31.161 50.8085 31.3551 49.6342 31.3551ZM51.5518 26.5398C52.5272 26.5398 53.3511 26.2746 54.0234 25.7443C54.7053 25.2045 55.2261 24.4517 55.5859 23.4858C55.9553 22.5199 56.1399 21.3883 56.1399 20.0909C56.1399 18.7936 55.96 17.6667 55.6001 16.7102C55.2403 15.7538 54.7195 15.0152 54.0376 14.4943C53.3558 13.9735 52.5272 13.7131 51.5518 13.7131C50.5575 13.7131 49.7195 13.983 49.0376 14.5227C48.3558 15.0625 47.8397 15.8106 47.4893 16.767C47.139 17.7235 46.9638 18.8314 46.9638 20.0909C46.9638 21.3598 47.139 22.482 47.4893 23.4574C47.8492 24.4233 48.3653 25.1809 49.0376 25.7301C49.7195 26.2699 50.5575 26.5398 51.5518 26.5398ZM67.0241 31V9.18182H72.8906V12.9886H73.1179C73.5156 11.6345 74.1832 10.6117 75.1207 9.92045C76.0582 9.2197 77.1378 8.86932 78.3594 8.86932C78.6624 8.86932 78.9891 8.88826 79.3395 8.92614C79.6899 8.96402 79.9976 9.0161 80.2628 9.08239V14.4517C79.9787 14.3665 79.5857 14.2907 79.0838 14.2244C78.5819 14.1581 78.1226 14.125 77.706 14.125C76.8158 14.125 76.0204 14.3191 75.3196 14.7074C74.6283 15.0862 74.0791 15.6165 73.6719 16.2983C73.2741 16.9801 73.0753 17.7661 73.0753 18.6562V31H67.0241ZM88.9879 31.4119C87.5959 31.4119 86.3554 31.1705 85.2663 30.6875C84.1773 30.1951 83.3156 29.4706 82.6811 28.5142C82.0561 27.5483 81.7436 26.3456 81.7436 24.9062C81.7436 23.6941 81.9661 22.6761 82.4112 21.8523C82.8563 21.0284 83.4624 20.3655 84.2294 19.8636C84.9964 19.3617 85.8677 18.983 86.843 18.7273C87.8279 18.4716 88.8601 18.2917 89.9396 18.1875C91.2086 18.0549 92.2313 17.9318 93.0078 17.8182C93.7843 17.6951 94.3478 17.5152 94.6982 17.2784C95.0485 17.0417 95.2237 16.6913 95.2237 16.2273V16.142C95.2237 15.2424 94.9396 14.5464 94.3714 14.054C93.8127 13.5616 93.0173 13.3153 91.9851 13.3153C90.8961 13.3153 90.0296 13.5568 89.3857 14.0398C88.7417 14.5133 88.3156 15.1098 88.1072 15.8295L82.5107 15.375C82.7947 14.0492 83.3535 12.9034 84.1868 11.9375C85.0201 10.9621 86.0949 10.214 87.4112 9.69318C88.737 9.16288 90.2711 8.89773 92.0135 8.89773C93.2256 8.89773 94.3857 9.03977 95.4936 9.32386C96.611 9.60795 97.6006 10.0483 98.4624 10.6449C99.3336 11.2415 100.02 12.0085 100.522 12.946C101.024 13.8741 101.275 14.9867 101.275 16.2841V31H95.5362V27.9744H95.3658C95.0154 28.6562 94.5466 29.2576 93.9595 29.7784C93.3724 30.2898 92.6669 30.6922 91.843 30.9858C91.0192 31.2699 90.0675 31.4119 88.9879 31.4119ZM90.7209 27.2358C91.611 27.2358 92.397 27.0606 93.0788 26.7102C93.7607 26.3504 94.2957 25.8674 94.6839 25.2614C95.0722 24.6553 95.2663 23.9687 95.2663 23.2017V20.8864C95.0769 21.0095 94.8165 21.1231 94.4851 21.2273C94.1631 21.322 93.7985 21.4119 93.3913 21.4972C92.9841 21.5729 92.5769 21.6439 92.1697 21.7102C91.7625 21.767 91.3932 21.8191 91.0618 21.8665C90.3516 21.9706 89.7313 22.1364 89.201 22.3636C88.6707 22.5909 88.2588 22.8987 87.9652 23.2869C87.6716 23.6657 87.5249 24.1392 87.5249 24.7074C87.5249 25.5312 87.8232 26.161 88.4197 26.5966C89.0258 27.0227 89.7929 27.2358 90.7209 27.2358ZM115.799 39.6364C113.839 39.6364 112.158 39.3665 110.756 38.8267C109.364 38.2964 108.256 37.572 107.433 36.6534C106.609 35.7348 106.074 34.7027 105.827 33.5568L111.424 32.804C111.594 33.2396 111.864 33.6468 112.234 34.0256C112.603 34.4044 113.091 34.7074 113.697 34.9347C114.312 35.1714 115.06 35.2898 115.941 35.2898C117.257 35.2898 118.342 34.9678 119.194 34.3239C120.056 33.6894 120.487 32.6241 120.487 31.1278V27.1364H120.231C119.966 27.7424 119.568 28.3153 119.038 28.8551C118.507 29.3949 117.826 29.8352 116.992 30.1761C116.159 30.517 115.165 30.6875 114.009 30.6875C112.371 30.6875 110.879 30.3087 109.535 29.5511C108.2 28.7841 107.134 27.6146 106.339 26.0426C105.553 24.4612 105.16 22.4631 105.16 20.0483C105.16 17.5767 105.562 15.5123 106.367 13.8551C107.172 12.1979 108.242 10.9574 109.577 10.1335C110.922 9.30966 112.395 8.89773 113.995 8.89773C115.217 8.89773 116.239 9.10606 117.063 9.52273C117.887 9.92992 118.55 10.4413 119.052 11.0568C119.563 11.6629 119.956 12.2595 120.231 12.8466H120.458V9.18182H126.467V31.2131C126.467 33.0691 126.012 34.6222 125.103 35.8722C124.194 37.1222 122.934 38.0597 121.325 38.6847C119.724 39.3191 117.882 39.6364 115.799 39.6364ZM115.927 26.142C116.902 26.142 117.726 25.9006 118.398 25.4176C119.08 24.9252 119.601 24.2244 119.961 23.3153C120.33 22.3968 120.515 21.2983 120.515 20.0199C120.515 18.7415 120.335 17.6335 119.975 16.696C119.615 15.7491 119.094 15.0152 118.413 14.4943C117.731 13.9735 116.902 13.7131 115.927 13.7131C114.933 13.7131 114.094 13.983 113.413 14.5227C112.731 15.053 112.215 15.7917 111.864 16.7386C111.514 17.6856 111.339 18.7794 111.339 20.0199C111.339 21.2794 111.514 22.3684 111.864 23.2869C112.224 24.196 112.74 24.9015 113.413 25.4034C114.094 25.8958 114.933 26.142 115.927 26.142ZM141.14 31.4261C138.933 31.4261 137.025 30.9574 135.415 30.0199C133.815 29.0729 132.579 27.7566 131.708 26.071C130.837 24.3759 130.401 22.411 130.401 20.1761C130.401 17.9223 130.837 15.9527 131.708 14.267C132.579 12.572 133.815 11.2557 135.415 10.3182C137.025 9.37121 138.933 8.89773 141.14 8.89773C143.346 8.89773 145.25 9.37121 146.85 10.3182C148.46 11.2557 149.701 12.572 150.572 14.267C151.443 15.9527 151.879 17.9223 151.879 20.1761C151.879 22.411 151.443 24.3759 150.572 26.071C149.701 27.7566 148.46 29.0729 146.85 30.0199C145.25 30.9574 143.346 31.4261 141.14 31.4261ZM141.168 26.7386C142.172 26.7386 143.01 26.4545 143.683 25.8864C144.355 25.3087 144.862 24.5227 145.202 23.5284C145.553 22.5341 145.728 21.4025 145.728 20.1335C145.728 18.8646 145.553 17.733 145.202 16.7386C144.862 15.7443 144.355 14.9583 143.683 14.3807C143.01 13.803 142.172 13.5142 141.168 13.5142C140.155 13.5142 139.303 13.803 138.612 14.3807C137.93 14.9583 137.414 15.7443 137.063 16.7386C136.722 17.733 136.552 18.8646 136.552 20.1335C136.552 21.4025 136.722 22.5341 137.063 23.5284C137.414 24.5227 137.93 25.3087 138.612 25.8864C139.303 26.4545 140.155 26.7386 141.168 26.7386ZM161.864 18.3864V31H155.813V9.18182H161.58V13.0312H161.836C162.319 11.7623 163.129 10.7585 164.265 10.0199C165.401 9.27178 166.779 8.89773 168.398 8.89773C169.914 8.89773 171.235 9.22917 172.362 9.89205C173.488 10.5549 174.364 11.5019 174.989 12.733C175.614 13.9545 175.927 15.4129 175.927 17.108V31H169.876V18.1875C169.885 16.8523 169.544 15.8106 168.853 15.0625C168.162 14.3049 167.21 13.9261 165.998 13.9261C165.183 13.9261 164.464 14.1013 163.839 14.4517C163.223 14.8021 162.74 15.3134 162.39 15.9858C162.049 16.6487 161.874 17.4489 161.864 18.3864ZM189.954 31V9.18182H196.005V31H189.954ZM192.994 6.36932C192.094 6.36932 191.322 6.07102 190.678 5.47443C190.044 4.86837 189.727 4.14394 189.727 3.30114C189.727 2.4678 190.044 1.75284 190.678 1.15625C191.322 0.550188 192.094 0.247158 192.994 0.247158C193.893 0.247158 194.66 0.550188 195.295 1.15625C195.939 1.75284 196.261 2.4678 196.261 3.30114C196.261 4.14394 195.939 4.86837 195.295 5.47443C194.66 6.07102 193.893 6.36932 192.994 6.36932ZM219.006 15.4034L213.466 15.7443C213.371 15.2708 213.168 14.8447 212.855 14.4659C212.543 14.0777 212.131 13.7699 211.619 13.5426C211.117 13.3059 210.516 13.1875 209.815 13.1875C208.878 13.1875 208.087 13.3864 207.443 13.7841C206.799 14.1723 206.477 14.6932 206.477 15.3466C206.477 15.8674 206.686 16.3078 207.102 16.6676C207.519 17.0275 208.234 17.3163 209.247 17.5341L213.196 18.3295C215.317 18.7652 216.899 19.4659 217.94 20.4318C218.982 21.3977 219.503 22.6667 219.503 24.2386C219.503 25.6686 219.081 26.9233 218.239 28.0028C217.405 29.0824 216.259 29.9252 214.801 30.5312C213.352 31.1278 211.681 31.4261 209.787 31.4261C206.899 31.4261 204.598 30.8248 202.884 29.6222C201.179 28.41 200.18 26.7623 199.886 24.679L205.838 24.3665C206.018 25.2472 206.454 25.9195 207.145 26.3835C207.836 26.8381 208.722 27.0653 209.801 27.0653C210.862 27.0653 211.714 26.8617 212.358 26.4545C213.011 26.0379 213.343 25.5028 213.352 24.8494C213.343 24.3002 213.111 23.8504 212.656 23.5C212.202 23.1402 211.501 22.8655 210.554 22.6761L206.776 21.9233C204.645 21.4972 203.059 20.7585 202.017 19.7074C200.985 18.6562 200.469 17.3163 200.469 15.6875C200.469 14.286 200.848 13.0786 201.605 12.0653C202.372 11.0521 203.447 10.2708 204.83 9.72159C206.222 9.17235 207.85 8.89773 209.716 8.89773C212.472 8.89773 214.64 9.48011 216.222 10.6449C217.813 11.8097 218.741 13.3958 219.006 15.4034ZM238.793 31.4119C237.401 31.4119 236.16 31.1705 235.071 30.6875C233.982 30.1951 233.12 29.4706 232.486 28.5142C231.861 27.5483 231.548 26.3456 231.548 24.9062C231.548 23.6941 231.771 22.6761 232.216 21.8523C232.661 21.0284 233.267 20.3655 234.034 19.8636C234.801 19.3617 235.672 18.983 236.648 18.7273C237.633 18.4716 238.665 18.2917 239.744 18.1875C241.013 18.0549 242.036 17.9318 242.812 17.8182C243.589 17.6951 244.152 17.5152 244.503 17.2784C244.853 17.0417 245.028 16.6913 245.028 16.2273V16.142C245.028 15.2424 244.744 14.5464 244.176 14.054C243.617 13.5616 242.822 13.3153 241.79 13.3153C240.701 13.3153 239.834 13.5568 239.19 14.0398C238.546 14.5133 238.12 15.1098 237.912 15.8295L232.315 15.375C232.599 14.0492 233.158 12.9034 233.991 11.9375C234.825 10.9621 235.9 10.214 237.216 9.69318C238.542 9.16288 240.076 8.89773 241.818 8.89773C243.03 8.89773 244.19 9.03977 245.298 9.32386C246.416 9.60795 247.405 10.0483 248.267 10.6449C249.138 11.2415 249.825 12.0085 250.327 12.946C250.829 13.8741 251.08 14.9867 251.08 16.2841V31H245.341V27.9744H245.17C244.82 28.6562 244.351 29.2576 243.764 29.7784C243.177 30.2898 242.472 30.6922 241.648 30.9858C240.824 31.2699 239.872 31.4119 238.793 31.4119ZM240.526 27.2358C241.416 27.2358 242.202 27.0606 242.884 26.7102C243.565 26.3504 244.1 25.8674 244.489 25.2614C244.877 24.6553 245.071 23.9687 245.071 23.2017V20.8864C244.882 21.0095 244.621 21.1231 244.29 21.2273C243.968 21.322 243.603 21.4119 243.196 21.4972C242.789 21.5729 242.382 21.6439 241.974 21.7102C241.567 21.767 241.198 21.8191 240.866 21.8665C240.156 21.9706 239.536 22.1364 239.006 22.3636C238.475 22.5909 238.063 22.8987 237.77 23.2869C237.476 23.6657 237.33 24.1392 237.33 24.7074C237.33 25.5312 237.628 26.161 238.224 26.5966C238.83 27.0227 239.598 27.2358 240.526 27.2358ZM265.032 31V9.18182H270.799V13.0312H271.055C271.509 11.7528 272.267 10.7443 273.327 10.0057C274.388 9.26705 275.657 8.89773 277.134 8.89773C278.63 8.89773 279.904 9.27178 280.955 10.0199C282.006 10.7585 282.707 11.7623 283.058 13.0312H283.285C283.73 11.7812 284.535 10.7822 285.7 10.0341C286.874 9.27652 288.261 8.89773 289.862 8.89773C291.897 8.89773 293.55 9.5464 294.819 10.8438C296.097 12.1316 296.737 13.9593 296.737 16.3267V31H290.7V17.5199C290.7 16.3078 290.378 15.3987 289.734 14.7926C289.09 14.1866 288.285 13.8835 287.319 13.8835C286.22 13.8835 285.363 14.2339 284.748 14.9347C284.132 15.6259 283.825 16.5398 283.825 17.6761V31H277.958V17.392C277.958 16.322 277.65 15.4697 277.035 14.8352C276.429 14.2008 275.629 13.8835 274.634 13.8835C273.962 13.8835 273.356 14.054 272.816 14.3949C272.286 14.7263 271.864 15.1951 271.552 15.8011C271.239 16.3977 271.083 17.0985 271.083 17.9034V31H265.032ZM307.738 31.4119C306.346 31.4119 305.105 31.1705 304.016 30.6875C302.927 30.1951 302.066 29.4706 301.431 28.5142C300.806 27.5483 300.494 26.3456 300.494 24.9062C300.494 23.6941 300.716 22.6761 301.161 21.8523C301.606 21.0284 302.212 20.3655 302.979 19.8636C303.746 19.3617 304.618 18.983 305.593 18.7273C306.578 18.4716 307.61 18.2917 308.69 18.1875C309.959 18.0549 310.981 17.9318 311.758 17.8182C312.534 17.6951 313.098 17.5152 313.448 17.2784C313.799 17.0417 313.974 16.6913 313.974 16.2273V16.142C313.974 15.2424 313.69 14.5464 313.121 14.054C312.563 13.5616 311.767 13.3153 310.735 13.3153C309.646 13.3153 308.78 13.5568 308.136 14.0398C307.492 14.5133 307.066 15.1098 306.857 15.8295L301.261 15.375C301.545 14.0492 302.103 12.9034 302.937 11.9375C303.77 10.9621 304.845 10.214 306.161 9.69318C307.487 9.16288 309.021 8.89773 310.763 8.89773C311.976 8.89773 313.136 9.03977 314.244 9.32386C315.361 9.60795 316.351 10.0483 317.212 10.6449C318.084 11.2415 318.77 12.0085 319.272 12.946C319.774 13.8741 320.025 14.9867 320.025 16.2841V31H314.286V27.9744H314.116C313.765 28.6562 313.297 29.2576 312.71 29.7784C312.122 30.2898 311.417 30.6922 310.593 30.9858C309.769 31.2699 308.817 31.4119 307.738 31.4119ZM309.471 27.2358C310.361 27.2358 311.147 27.0606 311.829 26.7102C312.511 26.3504 313.046 25.8674 313.434 25.2614C313.822 24.6553 314.016 23.9687 314.016 23.2017V20.8864C313.827 21.0095 313.567 21.1231 313.235 21.2273C312.913 21.322 312.549 21.4119 312.141 21.4972C311.734 21.5729 311.327 21.6439 310.92 21.7102C310.513 21.767 310.143 21.8191 309.812 21.8665C309.102 21.9706 308.481 22.1364 307.951 22.3636C307.421 22.5909 307.009 22.8987 306.715 23.2869C306.422 23.6657 306.275 24.1392 306.275 24.7074C306.275 25.5312 306.573 26.161 307.17 26.5966C307.776 27.0227 308.543 27.2358 309.471 27.2358ZM334.549 39.6364C332.589 39.6364 330.908 39.3665 329.506 38.8267C328.114 38.2964 327.006 37.572 326.183 36.6534C325.359 35.7348 324.824 34.7027 324.577 33.5568L330.174 32.804C330.344 33.2396 330.614 33.6468 330.984 34.0256C331.353 34.4044 331.841 34.7074 332.447 34.9347C333.062 35.1714 333.81 35.2898 334.691 35.2898C336.007 35.2898 337.092 34.9678 337.944 34.3239C338.806 33.6894 339.237 32.6241 339.237 31.1278V27.1364H338.981C338.716 27.7424 338.318 28.3153 337.788 28.8551C337.257 29.3949 336.576 29.8352 335.742 30.1761C334.909 30.517 333.915 30.6875 332.759 30.6875C331.121 30.6875 329.629 30.3087 328.285 29.5511C326.95 28.7841 325.884 27.6146 325.089 26.0426C324.303 24.4612 323.91 22.4631 323.91 20.0483C323.91 17.5767 324.312 15.5123 325.117 13.8551C325.922 12.1979 326.992 10.9574 328.327 10.1335C329.672 9.30966 331.145 8.89773 332.745 8.89773C333.967 8.89773 334.989 9.10606 335.813 9.52273C336.637 9.92992 337.3 10.4413 337.802 11.0568C338.313 11.6629 338.706 12.2595 338.981 12.8466H339.208V9.18182H345.217V31.2131C345.217 33.0691 344.762 34.6222 343.853 35.8722C342.944 37.1222 341.684 38.0597 340.075 38.6847C338.474 39.3191 336.632 39.6364 334.549 39.6364ZM334.677 26.142C335.652 26.142 336.476 25.9006 337.148 25.4176C337.83 24.9252 338.351 24.2244 338.711 23.3153C339.08 22.3968 339.265 21.2983 339.265 20.0199C339.265 18.7415 339.085 17.6335 338.725 16.696C338.365 15.7491 337.844 15.0152 337.163 14.4943C336.481 13.9735 335.652 13.7131 334.677 13.7131C333.683 13.7131 332.844 13.983 332.163 14.5227C331.481 15.053 330.965 15.7917 330.614 16.7386C330.264 17.6856 330.089 18.7794 330.089 20.0199C330.089 21.2794 330.264 22.3684 330.614 23.2869C330.974 24.196 331.49 24.9015 332.163 25.4034C332.844 25.8958 333.683 26.142 334.677 26.142ZM350.032 31V9.18182H356.083V31H350.032ZM353.072 6.36932C352.172 6.36932 351.4 6.07102 350.756 5.47443C350.122 4.86837 349.805 4.14394 349.805 3.30114C349.805 2.4678 350.122 1.75284 350.756 1.15625C351.4 0.550188 352.172 0.247158 353.072 0.247158C353.971 0.247158 354.738 0.550188 355.373 1.15625C356.017 1.75284 356.339 2.4678 356.339 3.30114C356.339 4.14394 356.017 4.86837 355.373 5.47443C354.738 6.07102 353.971 6.36932 353.072 6.36932ZM370.788 31.4261C368.554 31.4261 366.631 30.9527 365.021 30.0057C363.421 29.0492 362.19 27.7235 361.328 26.0284C360.476 24.3333 360.05 22.3826 360.05 20.1761C360.05 17.9413 360.481 15.9811 361.342 14.2955C362.214 12.6004 363.449 11.2794 365.05 10.3324C366.65 9.37595 368.554 8.89773 370.76 8.89773C372.663 8.89773 374.33 9.24337 375.76 9.93466C377.19 10.6259 378.321 11.5966 379.155 12.8466C379.988 14.0966 380.447 15.5644 380.533 17.25H374.822C374.661 16.161 374.235 15.285 373.544 14.6222C372.862 13.9498 371.967 13.6136 370.859 13.6136C369.922 13.6136 369.103 13.8693 368.402 14.3807C367.711 14.8826 367.171 15.6165 366.783 16.5824C366.394 17.5483 366.2 18.7178 366.2 20.0909C366.2 21.483 366.39 22.6667 366.768 23.642C367.157 24.6174 367.701 25.3608 368.402 25.8722C369.103 26.3835 369.922 26.6392 370.859 26.6392C371.551 26.6392 372.171 26.4972 372.72 26.2131C373.279 25.929 373.738 25.517 374.098 24.9773C374.467 24.428 374.709 23.7699 374.822 23.0028H380.533C380.438 24.6695 379.983 26.1373 379.169 27.4062C378.364 28.6657 377.251 29.6506 375.831 30.3608C374.411 31.071 372.73 31.4261 370.788 31.4261ZM390.629 31.4119C389.237 31.4119 387.996 31.1705 386.907 30.6875C385.818 30.1951 384.956 29.4706 384.322 28.5142C383.697 27.5483 383.384 26.3456 383.384 24.9062C383.384 23.6941 383.607 22.6761 384.052 21.8523C384.497 21.0284 385.103 20.3655 385.87 19.8636C386.637 19.3617 387.508 18.983 388.484 18.7273C389.469 18.4716 390.501 18.2917 391.58 18.1875C392.849 18.0549 393.872 17.9318 394.648 17.8182C395.425 17.6951 395.988 17.5152 396.339 17.2784C396.689 17.0417 396.864 16.6913 396.864 16.2273V16.142C396.864 15.2424 396.58 14.5464 396.012 14.054C395.453 13.5616 394.658 13.3153 393.626 13.3153C392.537 13.3153 391.67 13.5568 391.026 14.0398C390.382 14.5133 389.956 15.1098 389.748 15.8295L384.151 15.375C384.435 14.0492 384.994 12.9034 385.827 11.9375C386.661 10.9621 387.736 10.214 389.052 9.69318C390.378 9.16288 391.912 8.89773 393.654 8.89773C394.866 8.89773 396.026 9.03977 397.134 9.32386C398.252 9.60795 399.241 10.0483 400.103 10.6449C400.974 11.2415 401.661 12.0085 402.163 12.946C402.665 13.8741 402.915 14.9867 402.915 16.2841V31H397.177V27.9744H397.006C396.656 28.6562 396.187 29.2576 395.6 29.7784C395.013 30.2898 394.308 30.6922 393.484 30.9858C392.66 31.2699 391.708 31.4119 390.629 31.4119ZM392.362 27.2358C393.252 27.2358 394.038 27.0606 394.719 26.7102C395.401 26.3504 395.936 25.8674 396.325 25.2614C396.713 24.6553 396.907 23.9687 396.907 23.2017V20.8864C396.718 21.0095 396.457 21.1231 396.126 21.2273C395.804 21.322 395.439 21.4119 395.032 21.4972C394.625 21.5729 394.218 21.6439 393.81 21.7102C393.403 21.767 393.034 21.8191 392.702 21.8665C391.992 21.9706 391.372 22.1364 390.842 22.3636C390.311 22.5909 389.899 22.8987 389.606 23.2869C389.312 23.6657 389.165 24.1392 389.165 24.7074C389.165 25.5312 389.464 26.161 390.06 26.5966C390.666 27.0227 391.433 27.2358 392.362 27.2358ZM413.661 1.90909V31H407.61V1.90909H413.661ZM433.817 1.90909V31H427.766V1.90909H433.817ZM448.608 31.4261C446.364 31.4261 444.432 30.9716 442.812 30.0625C441.203 29.1439 439.962 27.8466 439.091 26.1705C438.22 24.4848 437.784 22.4915 437.784 20.1903C437.784 17.946 438.22 15.9763 439.091 14.2812C439.962 12.5862 441.188 11.2652 442.77 10.3182C444.361 9.37121 446.226 8.89773 448.366 8.89773C449.806 8.89773 451.146 9.12973 452.386 9.59375C453.636 10.0483 454.725 10.7348 455.653 11.6534C456.591 12.572 457.32 13.7273 457.841 15.1193C458.362 16.5019 458.622 18.1212 458.622 19.9773V21.6392H440.199V17.8892H452.926C452.926 17.018 452.737 16.2462 452.358 15.5739C451.979 14.9015 451.454 14.3759 450.781 13.9972C450.118 13.6089 449.347 13.4148 448.466 13.4148C447.547 13.4148 446.733 13.6278 446.023 14.054C445.322 14.4706 444.773 15.0341 444.375 15.7443C443.977 16.4451 443.774 17.2263 443.764 18.0881V21.6534C443.764 22.733 443.963 23.6657 444.361 24.4517C444.768 25.2377 445.341 25.8438 446.08 26.2699C446.818 26.696 447.694 26.9091 448.707 26.9091C449.38 26.9091 449.995 26.8144 450.554 26.625C451.113 26.4356 451.591 26.1515 451.989 25.7727C452.386 25.3939 452.689 24.9299 452.898 24.3807L458.494 24.75C458.21 26.0947 457.628 27.2689 456.747 28.2727C455.876 29.267 454.749 30.0436 453.366 30.6023C451.993 31.1515 450.407 31.4261 448.608 31.4261ZM472.401 39.6364C470.44 39.6364 468.759 39.3665 467.358 38.8267C465.966 38.2964 464.858 37.572 464.034 36.6534C463.21 35.7348 462.675 34.7027 462.429 33.5568L468.026 32.804C468.196 33.2396 468.466 33.6468 468.835 34.0256C469.205 34.4044 469.692 34.7074 470.298 34.9347C470.914 35.1714 471.662 35.2898 472.543 35.2898C473.859 35.2898 474.943 34.9678 475.795 34.3239C476.657 33.6894 477.088 32.6241 477.088 31.1278V27.1364H476.832C476.567 27.7424 476.17 28.3153 475.639 28.8551C475.109 29.3949 474.427 29.8352 473.594 30.1761C472.76 30.517 471.766 30.6875 470.611 30.6875C468.973 30.6875 467.481 30.3087 466.136 29.5511C464.801 28.7841 463.736 27.6146 462.94 26.0426C462.154 24.4612 461.761 22.4631 461.761 20.0483C461.761 17.5767 462.164 15.5123 462.969 13.8551C463.774 12.1979 464.844 10.9574 466.179 10.1335C467.524 9.30966 468.996 8.89773 470.597 8.89773C471.818 8.89773 472.841 9.10606 473.665 9.52273C474.489 9.92992 475.152 10.4413 475.653 11.0568C476.165 11.6629 476.558 12.2595 476.832 12.8466H477.06V9.18182H483.068V31.2131C483.068 33.0691 482.614 34.6222 481.705 35.8722C480.795 37.1222 479.536 38.0597 477.926 38.6847C476.326 39.3191 474.484 39.6364 472.401 39.6364ZM472.528 26.142C473.504 26.142 474.328 25.9006 475 25.4176C475.682 24.9252 476.203 24.2244 476.562 23.3153C476.932 22.3968 477.116 21.2983 477.116 20.0199C477.116 18.7415 476.937 17.6335 476.577 16.696C476.217 15.7491 475.696 15.0152 475.014 14.4943C474.332 13.9735 473.504 13.7131 472.528 13.7131C471.534 13.7131 470.696 13.983 470.014 14.5227C469.332 15.053 468.816 15.7917 468.466 16.7386C468.116 17.6856 467.94 18.7794 467.94 20.0199C467.94 21.2794 468.116 22.3684 468.466 23.2869C468.826 24.196 469.342 24.9015 470.014 25.4034C470.696 25.8958 471.534 26.142 472.528 26.142ZM497.827 31.4261C495.582 31.4261 493.651 30.9716 492.031 30.0625C490.421 29.1439 489.181 27.8466 488.31 26.1705C487.438 24.4848 487.003 22.4915 487.003 20.1903C487.003 17.946 487.438 15.9763 488.31 14.2812C489.181 12.5862 490.407 11.2652 491.989 10.3182C493.58 9.37121 495.445 8.89773 497.585 8.89773C499.025 8.89773 500.365 9.12973 501.605 9.59375C502.855 10.0483 503.944 10.7348 504.872 11.6534C505.81 12.572 506.539 13.7273 507.06 15.1193C507.58 16.5019 507.841 18.1212 507.841 19.9773V21.6392H489.418V17.8892H502.145C502.145 17.018 501.955 16.2462 501.577 15.5739C501.198 14.9015 500.672 14.3759 500 13.9972C499.337 13.6089 498.565 13.4148 497.685 13.4148C496.766 13.4148 495.952 13.6278 495.241 14.054C494.541 14.4706 493.991 15.0341 493.594 15.7443C493.196 16.4451 492.992 17.2263 492.983 18.0881V21.6534C492.983 22.733 493.182 23.6657 493.58 24.4517C493.987 25.2377 494.56 25.8438 495.298 26.2699C496.037 26.696 496.913 26.9091 497.926 26.9091C498.598 26.9091 499.214 26.8144 499.773 26.625C500.331 26.4356 500.81 26.1515 501.207 25.7727C501.605 25.3939 501.908 24.9299 502.116 24.3807L507.713 24.75C507.429 26.0947 506.847 27.2689 505.966 28.2727C505.095 29.267 503.968 30.0436 502.585 30.6023C501.212 31.1515 499.626 31.4261 497.827 31.4261ZM517.841 18.3864V31H511.79V9.18182H517.557V13.0312H517.812C518.295 11.7623 519.105 10.7585 520.241 10.0199C521.378 9.27178 522.756 8.89773 524.375 8.89773C525.89 8.89773 527.211 9.22917 528.338 9.89205C529.465 10.5549 530.341 11.5019 530.966 12.733C531.591 13.9545 531.903 15.4129 531.903 17.108V31H525.852V18.1875C525.862 16.8523 525.521 15.8106 524.83 15.0625C524.138 14.3049 523.187 13.9261 521.974 13.9261C521.16 13.9261 520.44 14.1013 519.815 14.4517C519.2 14.8021 518.717 15.3134 518.366 15.9858C518.026 16.6487 517.85 17.4489 517.841 18.3864ZM544.712 31.3551C543.055 31.3551 541.554 30.929 540.21 30.0767C538.874 29.215 537.814 27.9508 537.028 26.2841C536.251 24.608 535.863 22.553 535.863 20.1193C535.863 17.6193 536.265 15.5407 537.07 13.8835C537.875 12.2169 538.945 10.9716 540.281 10.1477C541.625 9.31439 543.098 8.89773 544.698 8.89773C545.92 8.89773 546.938 9.10606 547.752 9.52273C548.576 9.92992 549.239 10.4413 549.741 11.0568C550.252 11.6629 550.64 12.2595 550.906 12.8466H551.09V1.90909H557.127V31H551.161V27.5057H550.906C550.621 28.1117 550.219 28.7131 549.698 29.3097C549.187 29.8968 548.519 30.3845 547.695 30.7727C546.881 31.161 545.887 31.3551 544.712 31.3551ZM546.63 26.5398C547.605 26.5398 548.429 26.2746 549.102 25.7443C549.783 25.2045 550.304 24.4517 550.664 23.4858C551.033 22.5199 551.218 21.3883 551.218 20.0909C551.218 18.7936 551.038 17.6667 550.678 16.7102C550.318 15.7538 549.798 15.0152 549.116 14.4943C548.434 13.9735 547.605 13.7131 546.63 13.7131C545.636 13.7131 544.798 13.983 544.116 14.5227C543.434 15.0625 542.918 15.8106 542.567 16.767C542.217 17.7235 542.042 18.8314 542.042 20.0909C542.042 21.3598 542.217 22.482 542.567 23.4574C542.927 24.4233 543.443 25.1809 544.116 25.7301C544.798 26.2699 545.636 26.5398 546.63 26.5398ZM568.324 31.4119C566.932 31.4119 565.691 31.1705 564.602 30.6875C563.513 30.1951 562.652 29.4706 562.017 28.5142C561.392 27.5483 561.08 26.3456 561.08 24.9062C561.08 23.6941 561.302 22.6761 561.747 21.8523C562.192 21.0284 562.798 20.3655 563.565 19.8636C564.332 19.3617 565.204 18.983 566.179 18.7273C567.164 18.4716 568.196 18.2917 569.276 18.1875C570.545 18.0549 571.567 17.9318 572.344 17.8182C573.12 17.6951 573.684 17.5152 574.034 17.2784C574.384 17.0417 574.56 16.6913 574.56 16.2273V16.142C574.56 15.2424 574.276 14.5464 573.707 14.054C573.149 13.5616 572.353 13.3153 571.321 13.3153C570.232 13.3153 569.366 13.5568 568.722 14.0398C568.078 14.5133 567.652 15.1098 567.443 15.8295L561.847 15.375C562.131 14.0492 562.689 12.9034 563.523 11.9375C564.356 10.9621 565.431 10.214 566.747 9.69318C568.073 9.16288 569.607 8.89773 571.349 8.89773C572.562 8.89773 573.722 9.03977 574.83 9.32386C575.947 9.60795 576.937 10.0483 577.798 10.6449C578.67 11.2415 579.356 12.0085 579.858 12.946C580.36 13.8741 580.611 14.9867 580.611 16.2841V31H574.872V27.9744H574.702C574.351 28.6562 573.883 29.2576 573.295 29.7784C572.708 30.2898 572.003 30.6922 571.179 30.9858C570.355 31.2699 569.403 31.4119 568.324 31.4119ZM570.057 27.2358C570.947 27.2358 571.733 27.0606 572.415 26.7102C573.097 26.3504 573.632 25.8674 574.02 25.2614C574.408 24.6553 574.602 23.9687 574.602 23.2017V20.8864C574.413 21.0095 574.152 21.1231 573.821 21.2273C573.499 21.322 573.134 21.4119 572.727 21.4972C572.32 21.5729 571.913 21.6439 571.506 21.7102C571.098 21.767 570.729 21.8191 570.398 21.8665C569.688 21.9706 569.067 22.1364 568.537 22.3636C568.007 22.5909 567.595 22.8987 567.301 23.2869C567.008 23.6657 566.861 24.1392 566.861 24.7074C566.861 25.5312 567.159 26.161 567.756 26.5966C568.362 27.0227 569.129 27.2358 570.057 27.2358ZM585.305 31V9.18182H591.172V12.9886H591.399C591.797 11.6345 592.464 10.6117 593.402 9.92045C594.339 9.2197 595.419 8.86932 596.641 8.86932C596.944 8.86932 597.27 8.88826 597.621 8.92614C597.971 8.96402 598.279 9.0161 598.544 9.08239V14.4517C598.26 14.3665 597.867 14.2907 597.365 14.2244C596.863 14.1581 596.404 14.125 595.987 14.125C595.097 14.125 594.302 14.3191 593.601 14.7074C592.91 15.0862 592.36 15.6165 591.953 16.2983C591.555 16.9801 591.357 17.7661 591.357 18.6562V31H585.305ZM606.072 39.1818C605.305 39.1818 604.586 39.1203 603.913 38.9972C603.25 38.8835 602.701 38.7367 602.266 38.5568L603.629 34.0398C604.339 34.2576 604.979 34.3759 605.547 34.3949C606.125 34.4138 606.622 34.2813 607.038 33.9972C607.464 33.7131 607.81 33.2301 608.075 32.5483L608.43 31.625L600.604 9.18182H606.967L611.484 25.2045H611.712L616.271 9.18182H622.678L614.197 33.358C613.79 34.5322 613.236 35.5549 612.536 36.4261C611.844 37.3068 610.968 37.9839 609.908 38.4574C608.847 38.9403 607.569 39.1818 606.072 39.1818ZM12.2727 79.4261C10.0379 79.4261 8.11553 78.9527 6.50568 78.0057C4.9053 77.0492 3.67424 75.7235 2.8125 74.0284C1.96023 72.3333 1.53409 70.3826 1.53409 68.1761C1.53409 65.9413 1.96496 63.9811 2.8267 62.2955C3.69792 60.6004 4.93371 59.2794 6.53409 58.3324C8.13447 57.3759 10.0379 56.8977 12.2443 56.8977C14.1477 56.8977 15.8144 57.2434 17.2443 57.9347C18.6742 58.6259 19.8059 59.5966 20.6392 60.8466C21.4725 62.0966 21.9318 63.5644 22.017 65.25H16.3068C16.1458 64.161 15.7197 63.285 15.0284 62.6222C14.3466 61.9498 13.4517 61.6136 12.3438 61.6136C11.4062 61.6136 10.5871 61.8693 9.88636 62.3807C9.19508 62.8826 8.6553 63.6165 8.26705 64.5824C7.87879 65.5483 7.68466 66.7178 7.68466 68.0909C7.68466 69.483 7.87405 70.6667 8.25284 71.642C8.6411 72.6174 9.18561 73.3608 9.88636 73.8722C10.5871 74.3835 11.4062 74.6392 12.3438 74.6392C13.035 74.6392 13.6553 74.4972 14.2045 74.2131C14.7633 73.929 15.2225 73.517 15.5824 72.9773C15.9517 72.428 16.1932 71.7699 16.3068 71.0028H22.017C21.9223 72.6695 21.4678 74.1373 20.6534 75.4062C19.8485 76.6657 18.7358 77.6506 17.3153 78.3608C15.8949 79.071 14.214 79.4261 12.2727 79.4261ZM25.8913 79V57.1818H31.7578V60.9886H31.9851C32.3828 59.6345 33.0504 58.6117 33.9879 57.9205C34.9254 57.2197 36.005 56.8693 37.2266 56.8693C37.5296 56.8693 37.8563 56.8883 38.2067 56.9261C38.5571 56.964 38.8648 57.0161 39.13 57.0824V62.4517C38.8459 62.3665 38.4529 62.2907 37.951 62.2244C37.4491 62.1581 36.9898 62.125 36.5732 62.125C35.683 62.125 34.8875 62.3191 34.1868 62.7074C33.4955 63.0862 32.9463 63.6165 32.5391 64.2983C32.1413 64.9801 31.9425 65.7661 31.9425 66.6562V79H25.8913ZM51.1861 79.4261C48.9418 79.4261 47.0099 78.9716 45.3906 78.0625C43.7808 77.1439 42.5402 75.8466 41.669 74.1705C40.7978 72.4848 40.3622 70.4915 40.3622 68.1903C40.3622 65.946 40.7978 63.9763 41.669 62.2812C42.5402 60.5862 43.7666 59.2652 45.348 58.3182C46.9389 57.3712 48.8045 56.8977 50.9446 56.8977C52.384 56.8977 53.724 57.1297 54.9645 57.5938C56.2145 58.0483 57.3035 58.7348 58.2315 59.6534C59.169 60.572 59.8982 61.7273 60.419 63.1193C60.9399 64.5019 61.2003 66.1212 61.2003 67.9773V69.6392H42.777V65.8892H55.5043C55.5043 65.018 55.3149 64.2462 54.9361 63.5739C54.5573 62.9015 54.0317 62.3759 53.3594 61.9972C52.6965 61.6089 51.9247 61.4148 51.044 61.4148C50.1255 61.4148 49.3111 61.6278 48.6009 62.054C47.9001 62.4706 47.3509 63.0341 46.9531 63.7443C46.5554 64.4451 46.3518 65.2263 46.3423 66.0881V69.6534C46.3423 70.733 46.5412 71.6657 46.9389 72.4517C47.3461 73.2377 47.919 73.8438 48.6577 74.2699C49.3963 74.696 50.2723 74.9091 51.2855 74.9091C51.9579 74.9091 52.5734 74.8144 53.1321 74.625C53.6908 74.4356 54.169 74.1515 54.5668 73.7727C54.9645 73.3939 55.2675 72.9299 55.4759 72.3807L61.0724 72.75C60.7884 74.0947 60.206 75.2689 59.3253 76.2727C58.4541 77.267 57.3272 78.0436 55.9446 78.6023C54.5715 79.1515 52.9853 79.4261 51.1861 79.4261ZM71.3707 79.4119C69.9787 79.4119 68.7382 79.1705 67.6491 78.6875C66.5601 78.1951 65.6984 77.4706 65.0639 76.5142C64.4389 75.5483 64.1264 74.3456 64.1264 72.9062C64.1264 71.6941 64.349 70.6761 64.794 69.8523C65.2391 69.0284 65.8452 68.3655 66.6122 67.8636C67.3793 67.3617 68.2505 66.983 69.2259 66.7273C70.2107 66.4716 71.2429 66.2917 72.3224 66.1875C73.5914 66.0549 74.6141 65.9318 75.3906 65.8182C76.1671 65.6951 76.7306 65.5152 77.081 65.2784C77.4313 65.0417 77.6065 64.6913 77.6065 64.2273V64.142C77.6065 63.2424 77.3224 62.5464 76.7543 62.054C76.1955 61.5616 75.4001 61.3153 74.3679 61.3153C73.2789 61.3153 72.4124 61.5568 71.7685 62.0398C71.1245 62.5133 70.6984 63.1098 70.4901 63.8295L64.8935 63.375C65.1776 62.0492 65.7363 60.9034 66.5696 59.9375C67.4029 58.9621 68.4777 58.214 69.794 57.6932C71.1198 57.1629 72.6539 56.8977 74.3963 56.8977C75.6084 56.8977 76.7685 57.0398 77.8764 57.3239C78.9938 57.608 79.9834 58.0483 80.8452 58.6449C81.7164 59.2415 82.4029 60.0085 82.9048 60.946C83.4067 61.8741 83.6577 62.9867 83.6577 64.2841V79H77.919V75.9744H77.7486C77.3982 76.6562 76.9295 77.2576 76.3423 77.7784C75.7552 78.2898 75.0497 78.6922 74.2259 78.9858C73.402 79.2699 72.4503 79.4119 71.3707 79.4119ZM73.1037 75.2358C73.9938 75.2358 74.7798 75.0606 75.4616 74.7102C76.1435 74.3504 76.6785 73.8674 77.0668 73.2614C77.455 72.6553 77.6491 71.9687 77.6491 71.2017V68.8864C77.4598 69.0095 77.1993 69.1231 76.8679 69.2273C76.5459 69.322 76.1813 69.4119 75.7741 69.4972C75.367 69.5729 74.9598 69.6439 74.5526 69.7102C74.1454 69.767 73.776 69.8191 73.4446 69.8665C72.7344 69.9706 72.1141 70.1364 71.5838 70.3636C71.0535 70.5909 70.6416 70.8987 70.348 71.2869C70.0545 71.6657 69.9077 72.1392 69.9077 72.7074C69.9077 73.5312 70.206 74.161 70.8026 74.5966C71.4086 75.0227 72.1757 75.2358 73.1037 75.2358ZM99.9574 57.1818V61.7273H86.8182V57.1818H99.9574ZM89.8011 51.9545H95.8523V72.2955C95.8523 72.8542 95.9375 73.2898 96.108 73.6023C96.2784 73.9053 96.5152 74.1184 96.8182 74.2415C97.1307 74.3646 97.4905 74.4261 97.8977 74.4261C98.1818 74.4261 98.4659 74.4025 98.75 74.3551C99.0341 74.2983 99.2519 74.2557 99.4034 74.2273L100.355 78.7301C100.052 78.8248 99.6259 78.9337 99.0767 79.0568C98.5275 79.1894 97.8598 79.2699 97.0739 79.2983C95.6155 79.3551 94.3371 79.161 93.2386 78.7159C92.1496 78.2708 91.3021 77.5795 90.696 76.642C90.09 75.7045 89.7917 74.5208 89.8011 73.0909V51.9545ZM117.891 69.7102V57.1818H123.942V79H118.132V75.0369H117.905C117.412 76.3153 116.593 77.3428 115.447 78.1193C114.311 78.8958 112.924 79.2841 111.286 79.2841C109.827 79.2841 108.544 78.9527 107.436 78.2898C106.328 77.6269 105.462 76.6847 104.837 75.4631C104.221 74.2415 103.909 72.7784 103.899 71.0739V57.1818H109.95V69.9943C109.96 71.2822 110.305 72.3002 110.987 73.0483C111.669 73.7964 112.583 74.1705 113.729 74.1705C114.458 74.1705 115.14 74.0047 115.774 73.6733C116.409 73.3324 116.92 72.8305 117.308 72.1676C117.706 71.5047 117.9 70.6856 117.891 69.7102ZM128.782 79V57.1818H134.648V60.9886H134.876C135.273 59.6345 135.941 58.6117 136.879 57.9205C137.816 57.2197 138.896 56.8693 140.117 56.8693C140.42 56.8693 140.747 56.8883 141.097 56.9261C141.448 56.964 141.755 57.0161 142.021 57.0824V62.4517C141.737 62.3665 141.344 62.2907 140.842 62.2244C140.34 62.1581 139.88 62.125 139.464 62.125C138.574 62.125 137.778 62.3191 137.077 62.7074C136.386 63.0862 135.837 63.6165 135.43 64.2983C135.032 64.9801 134.833 65.7661 134.833 66.6562V79H128.782ZM154.077 79.4261C151.832 79.4261 149.901 78.9716 148.281 78.0625C146.671 77.1439 145.431 75.8466 144.56 74.1705C143.688 72.4848 143.253 70.4915 143.253 68.1903C143.253 65.946 143.688 63.9763 144.56 62.2812C145.431 60.5862 146.657 59.2652 148.239 58.3182C149.83 57.3712 151.695 56.8977 153.835 56.8977C155.275 56.8977 156.615 57.1297 157.855 57.5938C159.105 58.0483 160.194 58.7348 161.122 59.6534C162.06 60.572 162.789 61.7273 163.31 63.1193C163.83 64.5019 164.091 66.1212 164.091 67.9773V69.6392H145.668V65.8892H158.395C158.395 65.018 158.205 64.2462 157.827 63.5739C157.448 62.9015 156.922 62.3759 156.25 61.9972C155.587 61.6089 154.815 61.4148 153.935 61.4148C153.016 61.4148 152.202 61.6278 151.491 62.054C150.791 62.4706 150.241 63.0341 149.844 63.7443C149.446 64.4451 149.242 65.2263 149.233 66.0881V69.6534C149.233 70.733 149.432 71.6657 149.83 72.4517C150.237 73.2377 150.81 73.8438 151.548 74.2699C152.287 74.696 153.163 74.9091 154.176 74.9091C154.848 74.9091 155.464 74.8144 156.023 74.625C156.581 74.4356 157.06 74.1515 157.457 73.7727C157.855 73.3939 158.158 72.9299 158.366 72.3807L163.963 72.75C163.679 74.0947 163.097 75.2689 162.216 76.2727C161.345 77.267 160.218 78.0436 158.835 78.6023C157.462 79.1515 155.876 79.4261 154.077 79.4261ZM188.903 57.1818V61.7273H175.763V57.1818H188.903ZM178.746 51.9545H184.798V72.2955C184.798 72.8542 184.883 73.2898 185.053 73.6023C185.224 73.9053 185.46 74.1184 185.763 74.2415C186.076 74.3646 186.436 74.4261 186.843 74.4261C187.127 74.4261 187.411 74.4025 187.695 74.3551C187.979 74.2983 188.197 74.2557 188.349 74.2273L189.3 78.7301C188.997 78.8248 188.571 78.9337 188.022 79.0568C187.473 79.1894 186.805 79.2699 186.019 79.2983C184.561 79.3551 183.282 79.161 182.184 78.7159C181.095 78.2708 180.247 77.5795 179.641 76.642C179.035 75.7045 178.737 74.5208 178.746 73.0909V51.9545ZM199.364 66.3864V79H193.313V49.9091H199.194V61.0312H199.45C199.942 59.7434 200.737 58.7348 201.836 58.0057C202.934 57.267 204.312 56.8977 205.969 56.8977C207.485 56.8977 208.806 57.2292 209.933 57.892C211.069 58.5455 211.95 59.4877 212.575 60.7188C213.209 61.9403 213.522 63.4034 213.512 65.108V79H207.461V66.1875C207.47 64.8428 207.129 63.7964 206.438 63.0483C205.756 62.3002 204.8 61.9261 203.569 61.9261C202.745 61.9261 202.016 62.1013 201.381 62.4517C200.756 62.8021 200.264 63.3134 199.904 63.9858C199.554 64.6487 199.374 65.4489 199.364 66.3864ZM224.496 79.4119C223.104 79.4119 221.863 79.1705 220.774 78.6875C219.685 78.1951 218.823 77.4706 218.189 76.5142C217.564 75.5483 217.251 74.3456 217.251 72.9062C217.251 71.6941 217.474 70.6761 217.919 69.8523C218.364 69.0284 218.97 68.3655 219.737 67.8636C220.504 67.3617 221.375 66.983 222.351 66.7273C223.336 66.4716 224.368 66.2917 225.447 66.1875C226.716 66.0549 227.739 65.9318 228.516 65.8182C229.292 65.6951 229.856 65.5152 230.206 65.2784C230.556 65.0417 230.732 64.6913 230.732 64.2273V64.142C230.732 63.2424 230.447 62.5464 229.879 62.054C229.321 61.5616 228.525 61.3153 227.493 61.3153C226.404 61.3153 225.537 61.5568 224.893 62.0398C224.25 62.5133 223.823 63.1098 223.615 63.8295L218.018 63.375C218.303 62.0492 218.861 60.9034 219.695 59.9375C220.528 58.9621 221.603 58.214 222.919 57.6932C224.245 57.1629 225.779 56.8977 227.521 56.8977C228.733 56.8977 229.893 57.0398 231.001 57.3239C232.119 57.608 233.108 58.0483 233.97 58.6449C234.841 59.2415 235.528 60.0085 236.03 60.946C236.532 61.8741 236.783 62.9867 236.783 64.2841V79H231.044V75.9744H230.874C230.523 76.6562 230.054 77.2576 229.467 77.7784C228.88 78.2898 228.175 78.6922 227.351 78.9858C226.527 79.2699 225.575 79.4119 224.496 79.4119ZM226.229 75.2358C227.119 75.2358 227.905 75.0606 228.587 74.7102C229.268 74.3504 229.804 73.8674 230.192 73.2614C230.58 72.6553 230.774 71.9687 230.774 71.2017V68.8864C230.585 69.0095 230.324 69.1231 229.993 69.2273C229.671 69.322 229.306 69.4119 228.899 69.4972C228.492 69.5729 228.085 69.6439 227.678 69.7102C227.27 69.767 226.901 69.8191 226.57 69.8665C225.859 69.9706 225.239 70.1364 224.709 70.3636C224.179 70.5909 223.767 70.8987 223.473 71.2869C223.179 71.6657 223.033 72.1392 223.033 72.7074C223.033 73.5312 223.331 74.161 223.928 74.5966C224.534 75.0227 225.301 75.2358 226.229 75.2358ZM253.082 57.1818V61.7273H239.943V57.1818H253.082ZM242.926 51.9545H248.977V72.2955C248.977 72.8542 249.063 73.2898 249.233 73.6023C249.403 73.9053 249.64 74.1184 249.943 74.2415C250.256 74.3646 250.616 74.4261 251.023 74.4261C251.307 74.4261 251.591 74.4025 251.875 74.3551C252.159 74.2983 252.377 74.2557 252.528 74.2273L253.48 78.7301C253.177 78.8248 252.751 78.9337 252.202 79.0568C251.652 79.1894 250.985 79.2699 250.199 79.2983C248.741 79.3551 247.462 79.161 246.364 78.7159C245.275 78.2708 244.427 77.5795 243.821 76.642C243.215 75.7045 242.917 74.5208 242.926 73.0909V51.9545ZM272.504 79.4119C271.112 79.4119 269.871 79.1705 268.782 78.6875C267.693 78.1951 266.831 77.4706 266.197 76.5142C265.572 75.5483 265.259 74.3456 265.259 72.9062C265.259 71.6941 265.482 70.6761 265.927 69.8523C266.372 69.0284 266.978 68.3655 267.745 67.8636C268.512 67.3617 269.383 66.983 270.359 66.7273C271.344 66.4716 272.376 66.2917 273.455 66.1875C274.724 66.0549 275.747 65.9318 276.523 65.8182C277.3 65.6951 277.863 65.5152 278.214 65.2784C278.564 65.0417 278.739 64.6913 278.739 64.2273V64.142C278.739 63.2424 278.455 62.5464 277.887 62.054C277.328 61.5616 276.533 61.3153 275.501 61.3153C274.412 61.3153 273.545 61.5568 272.901 62.0398C272.257 62.5133 271.831 63.1098 271.623 63.8295L266.026 63.375C266.31 62.0492 266.869 60.9034 267.702 59.9375C268.536 58.9621 269.611 58.214 270.927 57.6932C272.253 57.1629 273.787 56.8977 275.529 56.8977C276.741 56.8977 277.901 57.0398 279.009 57.3239C280.127 57.608 281.116 58.0483 281.978 58.6449C282.849 59.2415 283.536 60.0085 284.038 60.946C284.54 61.8741 284.79 62.9867 284.79 64.2841V79H279.052V75.9744H278.881C278.531 76.6562 278.062 77.2576 277.475 77.7784C276.888 78.2898 276.183 78.6922 275.359 78.9858C274.535 79.2699 273.583 79.4119 272.504 79.4119ZM274.237 75.2358C275.127 75.2358 275.913 75.0606 276.594 74.7102C277.276 74.3504 277.811 73.8674 278.2 73.2614C278.588 72.6553 278.782 71.9687 278.782 71.2017V68.8864C278.593 69.0095 278.332 69.1231 278.001 69.2273C277.679 69.322 277.314 69.4119 276.907 69.4972C276.5 69.5729 276.093 69.6439 275.685 69.7102C275.278 69.767 274.909 69.8191 274.577 69.8665C273.867 69.9706 273.247 70.1364 272.717 70.3636C272.186 70.5909 271.774 70.8987 271.481 71.2869C271.187 71.6657 271.04 72.1392 271.04 72.7074C271.04 73.5312 271.339 74.161 271.935 74.5966C272.541 75.0227 273.308 75.2358 274.237 75.2358ZM289.485 87.1818V57.1818H295.451V60.8466H295.721C295.986 60.2595 296.37 59.6629 296.871 59.0568C297.383 58.4413 298.046 57.9299 298.86 57.5227C299.684 57.1061 300.707 56.8977 301.928 56.8977C303.519 56.8977 304.987 57.3144 306.332 58.1477C307.676 58.9716 308.751 60.2169 309.556 61.8835C310.361 63.5407 310.763 65.6193 310.763 68.1193C310.763 70.553 310.371 72.608 309.585 74.2841C308.808 75.9508 307.747 77.215 306.403 78.0767C305.067 78.929 303.571 79.3551 301.914 79.3551C300.74 79.3551 299.741 79.161 298.917 78.7727C298.103 78.3845 297.435 77.8968 296.914 77.3097C296.393 76.7131 295.996 76.1117 295.721 75.5057H295.536V87.1818H289.485ZM295.408 68.0909C295.408 69.3883 295.588 70.5199 295.948 71.4858C296.308 72.4517 296.829 73.2045 297.511 73.7443C298.192 74.2746 299.021 74.5398 299.996 74.5398C300.981 74.5398 301.815 74.2699 302.496 73.7301C303.178 73.1809 303.694 72.4233 304.045 71.4574C304.405 70.482 304.585 69.3598 304.585 68.0909C304.585 66.8314 304.409 65.7235 304.059 64.767C303.709 63.8106 303.192 63.0625 302.511 62.5227C301.829 61.983 300.991 61.7131 299.996 61.7131C299.012 61.7131 298.178 61.9735 297.496 62.4943C296.824 63.0152 296.308 63.7538 295.948 64.7102C295.588 65.6667 295.408 66.7936 295.408 68.0909ZM314.798 87.1818V57.1818H320.763V60.8466H321.033C321.299 60.2595 321.682 59.6629 322.184 59.0568C322.695 58.4413 323.358 57.9299 324.173 57.5227C324.996 57.1061 326.019 56.8977 327.241 56.8977C328.832 56.8977 330.299 57.3144 331.644 58.1477C332.989 58.9716 334.064 60.2169 334.869 61.8835C335.674 63.5407 336.076 65.6193 336.076 68.1193C336.076 70.553 335.683 72.608 334.897 74.2841C334.121 75.9508 333.06 77.215 331.715 78.0767C330.38 78.929 328.884 79.3551 327.227 79.3551C326.052 79.3551 325.053 79.161 324.229 78.7727C323.415 78.3845 322.747 77.8968 322.227 77.3097C321.706 76.7131 321.308 76.1117 321.033 75.5057H320.849V87.1818H314.798ZM320.721 68.0909C320.721 69.3883 320.901 70.5199 321.261 71.4858C321.621 72.4517 322.141 73.2045 322.823 73.7443C323.505 74.2746 324.334 74.5398 325.309 74.5398C326.294 74.5398 327.127 74.2699 327.809 73.7301C328.491 73.1809 329.007 72.4233 329.357 71.4574C329.717 70.482 329.897 69.3598 329.897 68.0909C329.897 66.8314 329.722 65.7235 329.371 64.767C329.021 63.8106 328.505 63.0625 327.823 62.5227C327.141 61.983 326.303 61.7131 325.309 61.7131C324.324 61.7131 323.491 61.9735 322.809 62.4943C322.137 63.0152 321.621 63.7538 321.261 64.7102C320.901 65.6667 320.721 66.7936 320.721 68.0909ZM350.053 79.4261C347.809 79.4261 345.877 78.9716 344.258 78.0625C342.648 77.1439 341.407 75.8466 340.536 74.1705C339.665 72.4848 339.229 70.4915 339.229 68.1903C339.229 65.946 339.665 63.9763 340.536 62.2812C341.407 60.5862 342.634 59.2652 344.215 58.3182C345.806 57.3712 347.672 56.8977 349.812 56.8977C351.251 56.8977 352.591 57.1297 353.832 57.5938C355.082 58.0483 356.171 58.7348 357.099 59.6534C358.036 60.572 358.765 61.7273 359.286 63.1193C359.807 64.5019 360.067 66.1212 360.067 67.9773V69.6392H341.644V65.8892H354.371C354.371 65.018 354.182 64.2462 353.803 63.5739C353.424 62.9015 352.899 62.3759 352.227 61.9972C351.564 61.6089 350.792 61.4148 349.911 61.4148C348.993 61.4148 348.178 61.6278 347.468 62.054C346.767 62.4706 346.218 63.0341 345.82 63.7443C345.423 64.4451 345.219 65.2263 345.21 66.0881V69.6534C345.21 70.733 345.408 71.6657 345.806 72.4517C346.213 73.2377 346.786 73.8438 347.525 74.2699C348.263 74.696 349.139 74.9091 350.153 74.9091C350.825 74.9091 351.441 74.8144 351.999 74.625C352.558 74.4356 353.036 74.1515 353.434 73.7727C353.832 73.3939 354.135 72.9299 354.343 72.3807L359.94 72.75C359.656 74.0947 359.073 75.2689 358.192 76.2727C357.321 77.267 356.194 78.0436 354.812 78.6023C353.439 79.1515 351.853 79.4261 350.053 79.4261ZM370.238 79.4119C368.846 79.4119 367.605 79.1705 366.516 78.6875C365.427 78.1951 364.566 77.4706 363.931 76.5142C363.306 75.5483 362.994 74.3456 362.994 72.9062C362.994 71.6941 363.216 70.6761 363.661 69.8523C364.106 69.0284 364.712 68.3655 365.479 67.8636C366.246 67.3617 367.118 66.983 368.093 66.7273C369.078 66.4716 370.11 66.2917 371.19 66.1875C372.459 66.0549 373.481 65.9318 374.258 65.8182C375.034 65.6951 375.598 65.5152 375.948 65.2784C376.299 65.0417 376.474 64.6913 376.474 64.2273V64.142C376.474 63.2424 376.19 62.5464 375.621 62.054C375.063 61.5616 374.267 61.3153 373.235 61.3153C372.146 61.3153 371.28 61.5568 370.636 62.0398C369.992 62.5133 369.566 63.1098 369.357 63.8295L363.761 63.375C364.045 62.0492 364.603 60.9034 365.437 59.9375C366.27 58.9621 367.345 58.214 368.661 57.6932C369.987 57.1629 371.521 56.8977 373.263 56.8977C374.476 56.8977 375.636 57.0398 376.744 57.3239C377.861 57.608 378.851 58.0483 379.712 58.6449C380.584 59.2415 381.27 60.0085 381.772 60.946C382.274 61.8741 382.525 62.9867 382.525 64.2841V79H376.786V75.9744H376.616C376.265 76.6562 375.797 77.2576 375.21 77.7784C374.622 78.2898 373.917 78.6922 373.093 78.9858C372.269 79.2699 371.317 79.4119 370.238 79.4119ZM371.971 75.2358C372.861 75.2358 373.647 75.0606 374.329 74.7102C375.011 74.3504 375.546 73.8674 375.934 73.2614C376.322 72.6553 376.516 71.9687 376.516 71.2017V68.8864C376.327 69.0095 376.067 69.1231 375.735 69.2273C375.413 69.322 375.049 69.4119 374.641 69.4972C374.234 69.5729 373.827 69.6439 373.42 69.7102C373.013 69.767 372.643 69.8191 372.312 69.8665C371.602 69.9706 370.981 70.1364 370.451 70.3636C369.921 70.5909 369.509 70.8987 369.215 71.2869C368.922 71.6657 368.775 72.1392 368.775 72.7074C368.775 73.5312 369.073 74.161 369.67 74.5966C370.276 75.0227 371.043 75.2358 371.971 75.2358ZM387.219 79V57.1818H393.086V60.9886H393.313C393.711 59.6345 394.379 58.6117 395.316 57.9205C396.254 57.2197 397.333 56.8693 398.555 56.8693C398.858 56.8693 399.184 56.8883 399.535 56.9261C399.885 56.964 400.193 57.0161 400.458 57.0824V62.4517C400.174 62.3665 399.781 62.2907 399.279 62.2244C398.777 62.1581 398.318 62.125 397.901 62.125C397.011 62.125 396.216 62.3191 395.515 62.7074C394.824 63.0862 394.274 63.6165 393.867 64.2983C393.469 64.9801 393.271 65.7661 393.271 66.6562V79H387.219ZM421.74 63.4034L416.2 63.7443C416.106 63.2708 415.902 62.8447 415.589 62.4659C415.277 62.0777 414.865 61.7699 414.354 61.5426C413.852 61.3059 413.25 61.1875 412.55 61.1875C411.612 61.1875 410.821 61.3864 410.178 61.7841C409.534 62.1723 409.212 62.6932 409.212 63.3466C409.212 63.8674 409.42 64.3078 409.837 64.6676C410.253 65.0275 410.968 65.3163 411.982 65.5341L415.93 66.3295C418.052 66.7652 419.633 67.4659 420.675 68.4318C421.716 69.3977 422.237 70.6667 422.237 72.2386C422.237 73.6686 421.816 74.9233 420.973 76.0028C420.14 77.0824 418.994 77.9252 417.536 78.5312C416.087 79.1278 414.415 79.4261 412.521 79.4261C409.633 79.4261 407.332 78.8248 405.618 77.6222C403.913 76.41 402.914 74.7623 402.621 72.679L408.572 72.3665C408.752 73.2472 409.188 73.9195 409.879 74.3835C410.571 74.8381 411.456 75.0653 412.536 75.0653C413.596 75.0653 414.448 74.8617 415.092 74.4545C415.746 74.0379 416.077 73.5028 416.087 72.8494C416.077 72.3002 415.845 71.8504 415.391 71.5C414.936 71.1402 414.235 70.8655 413.288 70.6761L409.51 69.9233C407.379 69.4972 405.793 68.7585 404.751 67.7074C403.719 66.6562 403.203 65.3163 403.203 63.6875C403.203 62.286 403.582 61.0786 404.339 60.0653C405.107 59.0521 406.181 58.2708 407.564 57.7216C408.956 57.1723 410.585 56.8977 412.45 56.8977C415.206 56.8977 417.375 57.4801 418.956 58.6449C420.547 59.8097 421.475 61.3958 421.74 63.4034ZM435.305 79V57.1818H441.357V79H435.305ZM438.345 54.3693C437.446 54.3693 436.674 54.071 436.03 53.4744C435.395 52.8684 435.078 52.1439 435.078 51.3011C435.078 50.4678 435.395 49.7528 436.03 49.1562C436.674 48.5502 437.446 48.2472 438.345 48.2472C439.245 48.2472 440.012 48.5502 440.646 49.1562C441.29 49.7528 441.612 50.4678 441.612 51.3011C441.612 52.1439 441.29 52.8684 440.646 53.4744C440.012 54.071 439.245 54.3693 438.345 54.3693ZM452.255 66.3864V79H446.204V57.1818H451.971V61.0312H452.227C452.71 59.7623 453.519 58.7585 454.656 58.0199C455.792 57.2718 457.17 56.8977 458.789 56.8977C460.304 56.8977 461.625 57.2292 462.752 57.892C463.879 58.5549 464.755 59.5019 465.38 60.733C466.005 61.9545 466.317 63.4129 466.317 65.108V79H460.266V66.1875C460.276 64.8523 459.935 63.8106 459.244 63.0625C458.552 62.3049 457.601 61.9261 456.388 61.9261C455.574 61.9261 454.854 62.1013 454.229 62.4517C453.614 62.8021 453.131 63.3134 452.781 63.9858C452.44 64.6487 452.264 65.4489 452.255 66.3864ZM491.95 57.1818V61.7273H478.81V57.1818H491.95ZM481.793 51.9545H487.844V72.2955C487.844 72.8542 487.93 73.2898 488.1 73.6023C488.271 73.9053 488.507 74.1184 488.81 74.2415C489.123 74.3646 489.483 74.4261 489.89 74.4261C490.174 74.4261 490.458 74.4025 490.742 74.3551C491.026 74.2983 491.244 74.2557 491.396 74.2273L492.347 78.7301C492.044 78.8248 491.618 78.9337 491.069 79.0568C490.52 79.1894 489.852 79.2699 489.066 79.2983C487.608 79.3551 486.329 79.161 485.231 78.7159C484.142 78.2708 483.294 77.5795 482.688 76.642C482.082 75.7045 481.784 74.5208 481.793 73.0909V51.9545ZM502.411 66.3864V79H496.36V49.9091H502.241V61.0312H502.496C502.989 59.7434 503.784 58.7348 504.883 58.0057C505.981 57.267 507.359 56.8977 509.016 56.8977C510.531 56.8977 511.853 57.2292 512.979 57.892C514.116 58.5455 514.996 59.4877 515.621 60.7188C516.256 61.9403 516.568 63.4034 516.559 65.108V79H510.508V66.1875C510.517 64.8428 510.176 63.7964 509.485 63.0483C508.803 62.3002 507.847 61.9261 506.616 61.9261C505.792 61.9261 505.063 62.1013 504.428 62.4517C503.803 62.8021 503.311 63.3134 502.951 63.9858C502.601 64.6487 502.421 65.4489 502.411 66.3864ZM531.264 79.4261C529.02 79.4261 527.088 78.9716 525.469 78.0625C523.859 77.1439 522.618 75.8466 521.747 74.1705C520.876 72.4848 520.44 70.4915 520.44 68.1903C520.44 65.946 520.876 63.9763 521.747 62.2812C522.618 60.5862 523.845 59.2652 525.426 58.3182C527.017 57.3712 528.883 56.8977 531.023 56.8977C532.462 56.8977 533.802 57.1297 535.043 57.5938C536.293 58.0483 537.382 58.7348 538.31 59.6534C539.247 60.572 539.976 61.7273 540.497 63.1193C541.018 64.5019 541.278 66.1212 541.278 67.9773V69.6392H522.855V65.8892H535.582C535.582 65.018 535.393 64.2462 535.014 63.5739C534.635 62.9015 534.11 62.3759 533.438 61.9972C532.775 61.6089 532.003 61.4148 531.122 61.4148C530.204 61.4148 529.389 61.6278 528.679 62.054C527.978 62.4706 527.429 63.0341 527.031 63.7443C526.634 64.4451 526.43 65.2263 526.42 66.0881V69.6534C526.42 70.733 526.619 71.6657 527.017 72.4517C527.424 73.2377 527.997 73.8438 528.736 74.2699C529.474 74.696 530.35 74.9091 531.364 74.9091C532.036 74.9091 532.652 74.8144 533.21 74.625C533.769 74.4356 534.247 74.1515 534.645 73.7727C535.043 73.3939 535.346 72.9299 535.554 72.3807L541.151 72.75C540.866 74.0947 540.284 75.2689 539.403 76.2727C538.532 77.267 537.405 78.0436 536.023 78.6023C534.65 79.1515 533.063 79.4261 531.264 79.4261ZM566.218 57.1818V61.7273H552.752V57.1818H566.218ZM555.835 79V55.6051C555.835 54.0237 556.142 52.7121 556.758 51.6705C557.383 50.6288 558.235 49.8475 559.315 49.3267C560.394 48.8059 561.621 48.5455 562.994 48.5455C563.922 48.5455 564.769 48.6165 565.536 48.7585C566.313 48.9006 566.89 49.0284 567.269 49.142L566.19 53.6875C565.953 53.6117 565.659 53.5407 565.309 53.4744C564.968 53.4081 564.618 53.375 564.258 53.375C563.368 53.375 562.747 53.5833 562.397 54C562.047 54.4072 561.871 54.9801 561.871 55.7188V79H555.835ZM578.991 79.4261C576.785 79.4261 574.877 78.9574 573.267 78.0199C571.667 77.0729 570.431 75.7566 569.56 74.071C568.688 72.3759 568.253 70.411 568.253 68.1761C568.253 65.9223 568.688 63.9527 569.56 62.267C570.431 60.572 571.667 59.2557 573.267 58.3182C574.877 57.3712 576.785 56.8977 578.991 56.8977C581.198 56.8977 583.101 57.3712 584.702 58.3182C586.312 59.2557 587.552 60.572 588.423 62.267C589.295 63.9527 589.73 65.9223 589.73 68.1761C589.73 70.411 589.295 72.3759 588.423 74.071C587.552 75.7566 586.312 77.0729 584.702 78.0199C583.101 78.9574 581.198 79.4261 578.991 79.4261ZM579.02 74.7386C580.024 74.7386 580.862 74.4545 581.534 73.8864C582.206 73.3087 582.713 72.5227 583.054 71.5284C583.404 70.5341 583.58 69.4025 583.58 68.1335C583.58 66.8646 583.404 65.733 583.054 64.7386C582.713 63.7443 582.206 62.9583 581.534 62.3807C580.862 61.803 580.024 61.5142 579.02 61.5142C578.007 61.5142 577.154 61.803 576.463 62.3807C575.781 62.9583 575.265 63.7443 574.915 64.7386C574.574 65.733 574.403 66.8646 574.403 68.1335C574.403 69.4025 574.574 70.5341 574.915 71.5284C575.265 72.5227 575.781 73.3087 576.463 73.8864C577.154 74.4545 578.007 74.7386 579.02 74.7386ZM599.716 49.9091V79H593.665V49.9091H599.716ZM610.046 72.7216L610.06 65.4631H610.941L617.93 57.1818H624.876L615.487 68.1477H614.052L610.046 72.7216ZM604.563 79V49.9091H610.614V79H604.563ZM618.2 79L611.779 69.4972L615.813 65.2216L625.288 79H618.2ZM633.896 49.9091V79H627.844V49.9091H633.896ZM648.601 79.4261C646.394 79.4261 644.486 78.9574 642.876 78.0199C641.276 77.0729 640.04 75.7566 639.169 74.071C638.298 72.3759 637.862 70.411 637.862 68.1761C637.862 65.9223 638.298 63.9527 639.169 62.267C640.04 60.572 641.276 59.2557 642.876 58.3182C644.486 57.3712 646.394 56.8977 648.601 56.8977C650.807 56.8977 652.711 57.3712 654.311 58.3182C655.921 59.2557 657.161 60.572 658.033 62.267C658.904 63.9527 659.339 65.9223 659.339 68.1761C659.339 70.411 658.904 72.3759 658.033 74.071C657.161 75.7566 655.921 77.0729 654.311 78.0199C652.711 78.9574 650.807 79.4261 648.601 79.4261ZM648.629 74.7386C649.633 74.7386 650.471 74.4545 651.143 73.8864C651.816 73.3087 652.322 72.5227 652.663 71.5284C653.014 70.5341 653.189 69.4025 653.189 68.1335C653.189 66.8646 653.014 65.733 652.663 64.7386C652.322 63.7443 651.816 62.9583 651.143 62.3807C650.471 61.803 649.633 61.5142 648.629 61.5142C647.616 61.5142 646.764 61.803 646.072 62.3807C645.391 62.9583 644.875 63.7443 644.524 64.7386C644.183 65.733 644.013 66.8646 644.013 68.1335C644.013 69.4025 644.183 70.5341 644.524 71.5284C644.875 72.5227 645.391 73.3087 646.072 73.8864C646.764 74.4545 647.616 74.7386 648.629 74.7386ZM663.274 79V57.1818H669.141V60.9886H669.368C669.766 59.6345 670.433 58.6117 671.371 57.9205C672.308 57.2197 673.388 56.8693 674.609 56.8693C674.912 56.8693 675.239 56.8883 675.589 56.9261C675.94 56.964 676.248 57.0161 676.513 57.0824V62.4517C676.229 62.3665 675.836 62.2907 675.334 62.2244C674.832 62.1581 674.373 62.125 673.956 62.125C673.066 62.125 672.27 62.3191 671.57 62.7074C670.878 63.0862 670.329 63.6165 669.922 64.2983C669.524 64.9801 669.325 65.7661 669.325 66.6562V79H663.274ZM688.569 79.4261C686.325 79.4261 684.393 78.9716 682.773 78.0625C681.164 77.1439 679.923 75.8466 679.052 74.1705C678.181 72.4848 677.745 70.4915 677.745 68.1903C677.745 65.946 678.181 63.9763 679.052 62.2812C679.923 60.5862 681.149 59.2652 682.731 58.3182C684.322 57.3712 686.187 56.8977 688.327 56.8977C689.767 56.8977 691.107 57.1297 692.347 57.5938C693.597 58.0483 694.686 58.7348 695.614 59.6534C696.552 60.572 697.281 61.7273 697.802 63.1193C698.323 64.5019 698.583 66.1212 698.583 67.9773V69.6392H680.16V65.8892H692.887C692.887 65.018 692.698 64.2462 692.319 63.5739C691.94 62.9015 691.415 62.3759 690.742 61.9972C690.079 61.6089 689.308 61.4148 688.427 61.4148C687.508 61.4148 686.694 61.6278 685.984 62.054C685.283 62.4706 684.734 63.0341 684.336 63.7443C683.938 64.4451 683.735 65.2263 683.725 66.0881V69.6534C683.725 70.733 683.924 71.6657 684.322 72.4517C684.729 73.2377 685.302 73.8438 686.04 74.2699C686.779 74.696 687.655 74.9091 688.668 74.9091C689.341 74.9091 689.956 74.8144 690.515 74.625C691.074 74.4356 691.552 74.1515 691.95 73.7727C692.347 73.3939 692.65 72.9299 692.859 72.3807L698.455 72.75C698.171 74.0947 697.589 75.2689 696.708 76.2727C695.837 77.267 694.71 78.0436 693.327 78.6023C691.954 79.1515 690.368 79.4261 688.569 79.4261ZM12.2727 127.426C10.0663 127.426 8.15814 126.957 6.5483 126.02C4.94792 125.073 3.71212 123.757 2.84091 122.071C1.9697 120.376 1.53409 118.411 1.53409 116.176C1.53409 113.922 1.9697 111.953 2.84091 110.267C3.71212 108.572 4.94792 107.256 6.5483 106.318C8.15814 105.371 10.0663 104.898 12.2727 104.898C14.4792 104.898 16.3826 105.371 17.983 106.318C19.5928 107.256 20.8333 108.572 21.7045 110.267C22.5758 111.953 23.0114 113.922 23.0114 116.176C23.0114 118.411 22.5758 120.376 21.7045 122.071C20.8333 123.757 19.5928 125.073 17.983 126.02C16.3826 126.957 14.4792 127.426 12.2727 127.426ZM12.3011 122.739C13.3049 122.739 14.143 122.455 14.8153 121.886C15.4877 121.309 15.9943 120.523 16.3352 119.528C16.6856 118.534 16.8608 117.402 16.8608 116.134C16.8608 114.865 16.6856 113.733 16.3352 112.739C15.9943 111.744 15.4877 110.958 14.8153 110.381C14.143 109.803 13.3049 109.514 12.3011 109.514C11.2879 109.514 10.4356 109.803 9.74432 110.381C9.0625 110.958 8.5464 111.744 8.19602 112.739C7.85511 113.733 7.68466 114.865 7.68466 116.134C7.68466 117.402 7.85511 118.534 8.19602 119.528C8.5464 120.523 9.0625 121.309 9.74432 121.886C10.4356 122.455 11.2879 122.739 12.3011 122.739ZM38.679 105.182V109.727H25.2131V105.182H38.679ZM28.2955 127V103.605C28.2955 102.024 28.6032 100.712 29.2188 99.6705C29.8438 98.6288 30.696 97.8475 31.7756 97.3267C32.8551 96.8059 34.0814 96.5455 35.4545 96.5455C36.3826 96.5455 37.2301 96.6165 37.9972 96.7585C38.7737 96.9006 39.3513 97.0284 39.7301 97.142L38.6506 101.688C38.4138 101.612 38.1203 101.541 37.7699 101.474C37.429 101.408 37.0786 101.375 36.7188 101.375C35.8286 101.375 35.2083 101.583 34.858 102C34.5076 102.407 34.3324 102.98 34.3324 103.719V127H28.2955ZM51.6335 127V105.182H57.4006V109.031H57.6562C58.1108 107.753 58.8684 106.744 59.929 106.006C60.9896 105.267 62.2585 104.898 63.7358 104.898C65.232 104.898 66.5057 105.272 67.5568 106.02C68.608 106.759 69.3087 107.762 69.6591 109.031H69.8864C70.3314 107.781 71.1364 106.782 72.3011 106.034C73.4754 105.277 74.8627 104.898 76.4631 104.898C78.4991 104.898 80.1515 105.546 81.4205 106.844C82.6989 108.132 83.3381 109.959 83.3381 112.327V127H77.3011V113.52C77.3011 112.308 76.9792 111.399 76.3352 110.793C75.6913 110.187 74.8864 109.884 73.9205 109.884C72.822 109.884 71.965 110.234 71.3494 110.935C70.7339 111.626 70.4261 112.54 70.4261 113.676V127H64.5597V113.392C64.5597 112.322 64.2519 111.47 63.6364 110.835C63.0303 110.201 62.2301 109.884 61.2358 109.884C60.5634 109.884 59.9574 110.054 59.4176 110.395C58.8873 110.726 58.4659 111.195 58.1534 111.801C57.8409 112.398 57.6847 113.098 57.6847 113.903V127H51.6335ZM102.109 117.71V105.182H108.161V127H102.351V123.037H102.124C101.631 124.315 100.812 125.343 99.6662 126.119C98.5298 126.896 97.1425 127.284 95.5043 127.284C94.0459 127.284 92.7628 126.953 91.6548 126.29C90.5469 125.627 89.6804 124.685 89.0554 123.463C88.4399 122.241 88.1274 120.778 88.1179 119.074V105.182H94.169V117.994C94.1785 119.282 94.5241 120.3 95.206 121.048C95.8878 121.796 96.8016 122.17 97.9474 122.17C98.6766 122.17 99.3584 122.005 99.9929 121.673C100.627 121.332 101.139 120.83 101.527 120.168C101.925 119.505 102.119 118.686 102.109 117.71ZM119.052 97.9091V127H113.001V97.9091H119.052ZM135.504 105.182V109.727H122.365V105.182H135.504ZM125.348 99.9545H131.399V120.295C131.399 120.854 131.484 121.29 131.655 121.602C131.825 121.905 132.062 122.118 132.365 122.241C132.678 122.365 133.037 122.426 133.445 122.426C133.729 122.426 134.013 122.402 134.297 122.355C134.581 122.298 134.799 122.256 134.95 122.227L135.902 126.73C135.599 126.825 135.173 126.934 134.624 127.057C134.074 127.189 133.407 127.27 132.621 127.298C131.162 127.355 129.884 127.161 128.786 126.716C127.696 126.271 126.849 125.58 126.243 124.642C125.637 123.705 125.339 122.521 125.348 121.091V99.9545ZM139.446 127V105.182H145.497V127H139.446ZM142.486 102.369C141.586 102.369 140.814 102.071 140.17 101.474C139.536 100.868 139.219 100.144 139.219 99.3011C139.219 98.4678 139.536 97.7528 140.17 97.1562C140.814 96.5502 141.586 96.2472 142.486 96.2472C143.385 96.2472 144.152 96.5502 144.787 97.1562C145.431 97.7528 145.753 98.4678 145.753 99.3011C145.753 100.144 145.431 100.868 144.787 101.474C144.152 102.071 143.385 102.369 142.486 102.369ZM150.344 135.182V105.182H156.31V108.847H156.58C156.845 108.259 157.229 107.663 157.731 107.057C158.242 106.441 158.905 105.93 159.719 105.523C160.543 105.106 161.566 104.898 162.788 104.898C164.379 104.898 165.846 105.314 167.191 106.148C168.536 106.972 169.611 108.217 170.415 109.884C171.22 111.541 171.623 113.619 171.623 116.119C171.623 118.553 171.23 120.608 170.444 122.284C169.667 123.951 168.607 125.215 167.262 126.077C165.927 126.929 164.431 127.355 162.773 127.355C161.599 127.355 160.6 127.161 159.776 126.773C158.962 126.384 158.294 125.897 157.773 125.31C157.253 124.713 156.855 124.112 156.58 123.506H156.396V135.182H150.344ZM156.268 116.091C156.268 117.388 156.448 118.52 156.808 119.486C157.167 120.452 157.688 121.205 158.37 121.744C159.052 122.275 159.88 122.54 160.856 122.54C161.841 122.54 162.674 122.27 163.356 121.73C164.038 121.181 164.554 120.423 164.904 119.457C165.264 118.482 165.444 117.36 165.444 116.091C165.444 114.831 165.269 113.723 164.918 112.767C164.568 111.811 164.052 111.062 163.37 110.523C162.688 109.983 161.85 109.713 160.856 109.713C159.871 109.713 159.038 109.973 158.356 110.494C157.683 111.015 157.167 111.754 156.808 112.71C156.448 113.667 156.268 114.794 156.268 116.091ZM181.708 97.9091V127H175.657V97.9091H181.708ZM196.499 127.426C194.254 127.426 192.322 126.972 190.703 126.062C189.093 125.144 187.853 123.847 186.982 122.17C186.11 120.485 185.675 118.491 185.675 116.19C185.675 113.946 186.11 111.976 186.982 110.281C187.853 108.586 189.079 107.265 190.661 106.318C192.251 105.371 194.117 104.898 196.257 104.898C197.696 104.898 199.036 105.13 200.277 105.594C201.527 106.048 202.616 106.735 203.544 107.653C204.482 108.572 205.211 109.727 205.732 111.119C206.252 112.502 206.513 114.121 206.513 115.977V117.639H188.089V113.889H200.817C200.817 113.018 200.627 112.246 200.249 111.574C199.87 110.902 199.344 110.376 198.672 109.997C198.009 109.609 197.237 109.415 196.357 109.415C195.438 109.415 194.624 109.628 193.913 110.054C193.213 110.471 192.663 111.034 192.266 111.744C191.868 112.445 191.664 113.226 191.655 114.088V117.653C191.655 118.733 191.854 119.666 192.251 120.452C192.659 121.238 193.232 121.844 193.97 122.27C194.709 122.696 195.585 122.909 196.598 122.909C197.27 122.909 197.886 122.814 198.445 122.625C199.003 122.436 199.482 122.152 199.879 121.773C200.277 121.394 200.58 120.93 200.788 120.381L206.385 120.75C206.101 122.095 205.518 123.269 204.638 124.273C203.767 125.267 202.64 126.044 201.257 126.602C199.884 127.152 198.298 127.426 196.499 127.426ZM229.577 127.426C227.343 127.426 225.42 126.953 223.81 126.006C222.21 125.049 220.979 123.723 220.117 122.028C219.265 120.333 218.839 118.383 218.839 116.176C218.839 113.941 219.27 111.981 220.131 110.295C221.003 108.6 222.238 107.279 223.839 106.332C225.439 105.376 227.343 104.898 229.549 104.898C231.452 104.898 233.119 105.243 234.549 105.935C235.979 106.626 237.111 107.597 237.944 108.847C238.777 110.097 239.237 111.564 239.322 113.25H233.612C233.451 112.161 233.024 111.285 232.333 110.622C231.651 109.95 230.756 109.614 229.648 109.614C228.711 109.614 227.892 109.869 227.191 110.381C226.5 110.883 225.96 111.616 225.572 112.582C225.183 113.548 224.989 114.718 224.989 116.091C224.989 117.483 225.179 118.667 225.558 119.642C225.946 120.617 226.49 121.361 227.191 121.872C227.892 122.384 228.711 122.639 229.648 122.639C230.34 122.639 230.96 122.497 231.509 122.213C232.068 121.929 232.527 121.517 232.887 120.977C233.256 120.428 233.498 119.77 233.612 119.003H239.322C239.227 120.67 238.772 122.137 237.958 123.406C237.153 124.666 236.04 125.651 234.62 126.361C233.2 127.071 231.519 127.426 229.577 127.426ZM257.188 117.71V105.182H263.239V127H257.429V123.037H257.202C256.709 124.315 255.89 125.343 254.744 126.119C253.608 126.896 252.221 127.284 250.582 127.284C249.124 127.284 247.841 126.953 246.733 126.29C245.625 125.627 244.759 124.685 244.134 123.463C243.518 122.241 243.205 120.778 243.196 119.074V105.182H249.247V117.994C249.257 119.282 249.602 120.3 250.284 121.048C250.966 121.796 251.88 122.17 253.026 122.17C253.755 122.17 254.437 122.005 255.071 121.673C255.705 121.332 256.217 120.83 256.605 120.168C257.003 119.505 257.197 118.686 257.188 117.71ZM274.13 97.9091V127H268.079V97.9091H274.13ZM290.582 105.182V109.727H277.443V105.182H290.582ZM280.426 99.9545H286.477V120.295C286.477 120.854 286.563 121.29 286.733 121.602C286.903 121.905 287.14 122.118 287.443 122.241C287.756 122.365 288.116 122.426 288.523 122.426C288.807 122.426 289.091 122.402 289.375 122.355C289.659 122.298 289.877 122.256 290.028 122.227L290.98 126.73C290.677 126.825 290.251 126.934 289.702 127.057C289.152 127.189 288.485 127.27 287.699 127.298C286.241 127.355 284.962 127.161 283.864 126.716C282.775 126.271 281.927 125.58 281.321 124.642C280.715 123.705 280.417 122.521 280.426 121.091V99.9545ZM308.516 117.71V105.182H314.567V127H308.757V123.037H308.53C308.037 124.315 307.218 125.343 306.072 126.119C304.936 126.896 303.549 127.284 301.911 127.284C300.452 127.284 299.169 126.953 298.061 126.29C296.953 125.627 296.087 124.685 295.462 123.463C294.846 122.241 294.534 120.778 294.524 119.074V105.182H300.575V117.994C300.585 119.282 300.93 120.3 301.612 121.048C302.294 121.796 303.208 122.17 304.354 122.17C305.083 122.17 305.765 122.005 306.399 121.673C307.034 121.332 307.545 120.83 307.933 120.168C308.331 119.505 308.525 118.686 308.516 117.71ZM319.407 127V105.182H325.273V108.989H325.501C325.898 107.634 326.566 106.612 327.504 105.92C328.441 105.22 329.521 104.869 330.742 104.869C331.045 104.869 331.372 104.888 331.722 104.926C332.073 104.964 332.38 105.016 332.646 105.082V110.452C332.362 110.366 331.969 110.291 331.467 110.224C330.965 110.158 330.505 110.125 330.089 110.125C329.199 110.125 328.403 110.319 327.702 110.707C327.011 111.086 326.462 111.616 326.055 112.298C325.657 112.98 325.458 113.766 325.458 114.656V127H319.407ZM344.702 127.426C342.457 127.426 340.526 126.972 338.906 126.062C337.296 125.144 336.056 123.847 335.185 122.17C334.313 120.485 333.878 118.491 333.878 116.19C333.878 113.946 334.313 111.976 335.185 110.281C336.056 108.586 337.282 107.265 338.864 106.318C340.455 105.371 342.32 104.898 344.46 104.898C345.9 104.898 347.24 105.13 348.48 105.594C349.73 106.048 350.819 106.735 351.747 107.653C352.685 108.572 353.414 109.727 353.935 111.119C354.455 112.502 354.716 114.121 354.716 115.977V117.639H336.293V113.889H349.02C349.02 113.018 348.83 112.246 348.452 111.574C348.073 110.902 347.547 110.376 346.875 109.997C346.212 109.609 345.44 109.415 344.56 109.415C343.641 109.415 342.827 109.628 342.116 110.054C341.416 110.471 340.866 111.034 340.469 111.744C340.071 112.445 339.867 113.226 339.858 114.088V117.653C339.858 118.733 340.057 119.666 340.455 120.452C340.862 121.238 341.435 121.844 342.173 122.27C342.912 122.696 343.788 122.909 344.801 122.909C345.473 122.909 346.089 122.814 346.648 122.625C347.206 122.436 347.685 122.152 348.082 121.773C348.48 121.394 348.783 120.93 348.991 120.381L354.588 120.75C354.304 122.095 353.722 123.269 352.841 124.273C351.97 125.267 350.843 126.044 349.46 126.602C348.087 127.152 346.501 127.426 344.702 127.426ZM376.818 111.403L371.278 111.744C371.184 111.271 370.98 110.845 370.668 110.466C370.355 110.078 369.943 109.77 369.432 109.543C368.93 109.306 368.329 109.188 367.628 109.188C366.69 109.188 365.9 109.386 365.256 109.784C364.612 110.172 364.29 110.693 364.29 111.347C364.29 111.867 364.498 112.308 364.915 112.668C365.331 113.027 366.046 113.316 367.06 113.534L371.009 114.33C373.13 114.765 374.711 115.466 375.753 116.432C376.795 117.398 377.315 118.667 377.315 120.239C377.315 121.669 376.894 122.923 376.051 124.003C375.218 125.082 374.072 125.925 372.614 126.531C371.165 127.128 369.493 127.426 367.599 127.426C364.711 127.426 362.41 126.825 360.696 125.622C358.991 124.41 357.992 122.762 357.699 120.679L363.651 120.366C363.83 121.247 364.266 121.92 364.957 122.384C365.649 122.838 366.534 123.065 367.614 123.065C368.674 123.065 369.527 122.862 370.17 122.455C370.824 122.038 371.155 121.503 371.165 120.849C371.155 120.3 370.923 119.85 370.469 119.5C370.014 119.14 369.313 118.866 368.366 118.676L364.588 117.923C362.457 117.497 360.871 116.759 359.83 115.707C358.797 114.656 358.281 113.316 358.281 111.688C358.281 110.286 358.66 109.079 359.418 108.065C360.185 107.052 361.259 106.271 362.642 105.722C364.034 105.172 365.663 104.898 367.528 104.898C370.284 104.898 372.453 105.48 374.034 106.645C375.625 107.81 376.553 109.396 376.818 111.403ZM394.688 127L388.75 105.182H394.872L398.253 119.841H398.452L401.974 105.182H407.983L411.562 119.756H411.747L415.071 105.182H421.179L415.256 127H408.849L405.099 113.278H404.83L401.08 127H394.688ZM433.718 127.426C431.512 127.426 429.603 126.957 427.994 126.02C426.393 125.073 425.157 123.757 424.286 122.071C423.415 120.376 422.979 118.411 422.979 116.176C422.979 113.922 423.415 111.953 424.286 110.267C425.157 108.572 426.393 107.256 427.994 106.318C429.603 105.371 431.512 104.898 433.718 104.898C435.924 104.898 437.828 105.371 439.428 106.318C441.038 107.256 442.279 108.572 443.15 110.267C444.021 111.953 444.457 113.922 444.457 116.176C444.457 118.411 444.021 120.376 443.15 122.071C442.279 123.757 441.038 125.073 439.428 126.02C437.828 126.957 435.924 127.426 433.718 127.426ZM433.746 122.739C434.75 122.739 435.588 122.455 436.261 121.886C436.933 121.309 437.44 120.523 437.781 119.528C438.131 118.534 438.306 117.402 438.306 116.134C438.306 114.865 438.131 113.733 437.781 112.739C437.44 111.744 436.933 110.958 436.261 110.381C435.588 109.803 434.75 109.514 433.746 109.514C432.733 109.514 431.881 109.803 431.19 110.381C430.508 110.958 429.992 111.744 429.641 112.739C429.3 113.733 429.13 114.865 429.13 116.134C429.13 117.402 429.3 118.534 429.641 119.528C429.992 120.523 430.508 121.309 431.19 121.886C431.881 122.455 432.733 122.739 433.746 122.739ZM448.391 127V105.182H454.258V108.989H454.485C454.883 107.634 455.55 106.612 456.488 105.92C457.425 105.22 458.505 104.869 459.727 104.869C460.03 104.869 460.356 104.888 460.707 104.926C461.057 104.964 461.365 105.016 461.63 105.082V110.452C461.346 110.366 460.953 110.291 460.451 110.224C459.949 110.158 459.49 110.125 459.073 110.125C458.183 110.125 457.388 110.319 456.687 110.707C455.996 111.086 455.446 111.616 455.039 112.298C454.641 112.98 454.442 113.766 454.442 114.656V127H448.391ZM470.81 97.9091V127H464.759V97.9091H470.81ZM483.697 127.355C482.04 127.355 480.539 126.929 479.194 126.077C477.859 125.215 476.798 123.951 476.012 122.284C475.236 120.608 474.847 118.553 474.847 116.119C474.847 113.619 475.25 111.541 476.055 109.884C476.86 108.217 477.93 106.972 479.265 106.148C480.61 105.314 482.082 104.898 483.683 104.898C484.904 104.898 485.922 105.106 486.737 105.523C487.56 105.93 488.223 106.441 488.725 107.057C489.237 107.663 489.625 108.259 489.89 108.847H490.075V97.9091H496.112V127H490.146V123.506H489.89C489.606 124.112 489.203 124.713 488.683 125.31C488.171 125.897 487.504 126.384 486.68 126.773C485.865 127.161 484.871 127.355 483.697 127.355ZM485.614 122.54C486.59 122.54 487.414 122.275 488.086 121.744C488.768 121.205 489.289 120.452 489.648 119.486C490.018 118.52 490.202 117.388 490.202 116.091C490.202 114.794 490.022 113.667 489.663 112.71C489.303 111.754 488.782 111.015 488.1 110.494C487.418 109.973 486.59 109.713 485.614 109.713C484.62 109.713 483.782 109.983 483.1 110.523C482.418 111.062 481.902 111.811 481.552 112.767C481.201 113.723 481.026 114.831 481.026 116.091C481.026 117.36 481.201 118.482 481.552 119.457C481.912 120.423 482.428 121.181 483.1 121.73C483.782 122.27 484.62 122.54 485.614 122.54ZM505.391 127L499.453 105.182H505.575L508.956 119.841H509.155L512.678 105.182H518.686L522.266 119.756H522.45L525.774 105.182H531.882L525.959 127H519.553L515.803 113.278H515.533L511.783 127H505.391ZM535.11 127V105.182H541.161V127H535.11ZM538.15 102.369C537.25 102.369 536.478 102.071 535.835 101.474C535.2 100.868 534.883 100.144 534.883 99.3011C534.883 98.4678 535.2 97.7528 535.835 97.1562C536.478 96.5502 537.25 96.2472 538.15 96.2472C539.049 96.2472 539.817 96.5502 540.451 97.1562C541.095 97.7528 541.417 98.4678 541.417 99.3011C541.417 100.144 541.095 100.868 540.451 101.474C539.817 102.071 539.049 102.369 538.15 102.369ZM554.048 127.355C552.391 127.355 550.89 126.929 549.545 126.077C548.21 125.215 547.15 123.951 546.364 122.284C545.587 120.608 545.199 118.553 545.199 116.119C545.199 113.619 545.601 111.541 546.406 109.884C547.211 108.217 548.281 106.972 549.616 106.148C550.961 105.314 552.434 104.898 554.034 104.898C555.256 104.898 556.274 105.106 557.088 105.523C557.912 105.93 558.575 106.441 559.077 107.057C559.588 107.663 559.976 108.259 560.241 108.847H560.426V97.9091H566.463V127H560.497V123.506H560.241C559.957 124.112 559.555 124.713 559.034 125.31C558.523 125.897 557.855 126.384 557.031 126.773C556.217 127.161 555.223 127.355 554.048 127.355ZM555.966 122.54C556.941 122.54 557.765 122.275 558.438 121.744C559.119 121.205 559.64 120.452 560 119.486C560.369 118.52 560.554 117.388 560.554 116.091C560.554 114.794 560.374 113.667 560.014 112.71C559.654 111.754 559.134 111.015 558.452 110.494C557.77 109.973 556.941 109.713 555.966 109.713C554.972 109.713 554.134 109.983 553.452 110.523C552.77 111.062 552.254 111.811 551.903 112.767C551.553 113.723 551.378 114.831 551.378 116.091C551.378 117.36 551.553 118.482 551.903 119.457C552.263 120.423 552.779 121.181 553.452 121.73C554.134 122.27 554.972 122.54 555.966 122.54ZM581.381 127.426C579.137 127.426 577.205 126.972 575.586 126.062C573.976 125.144 572.736 123.847 571.864 122.17C570.993 120.485 570.558 118.491 570.558 116.19C570.558 113.946 570.993 111.976 571.864 110.281C572.736 108.586 573.962 107.265 575.543 106.318C577.134 105.371 579 104.898 581.14 104.898C582.579 104.898 583.919 105.13 585.16 105.594C586.41 106.048 587.499 106.735 588.427 107.653C589.364 108.572 590.094 109.727 590.614 111.119C591.135 112.502 591.396 114.121 591.396 115.977V117.639H572.972V113.889H585.7C585.7 113.018 585.51 112.246 585.131 111.574C584.753 110.902 584.227 110.376 583.555 109.997C582.892 109.609 582.12 109.415 581.239 109.415C580.321 109.415 579.506 109.628 578.796 110.054C578.095 110.471 577.546 111.034 577.148 111.744C576.751 112.445 576.547 113.226 576.538 114.088V117.653C576.538 118.733 576.737 119.666 577.134 120.452C577.541 121.238 578.114 121.844 578.853 122.27C579.592 122.696 580.468 122.909 581.481 122.909C582.153 122.909 582.769 122.814 583.327 122.625C583.886 122.436 584.364 122.152 584.762 121.773C585.16 121.394 585.463 120.93 585.671 120.381L591.268 120.75C590.984 122.095 590.401 123.269 589.521 124.273C588.649 125.267 587.522 126.044 586.14 126.602C584.767 127.152 583.181 127.426 581.381 127.426ZM598.881 127.369C597.944 127.369 597.139 127.038 596.467 126.375C595.804 125.703 595.472 124.898 595.472 123.96C595.472 123.032 595.804 122.237 596.467 121.574C597.139 120.911 597.944 120.58 598.881 120.58C599.79 120.58 600.586 120.911 601.268 121.574C601.95 122.237 602.29 123.032 602.29 123.96C602.29 124.585 602.129 125.158 601.808 125.679C601.495 126.19 601.083 126.602 600.572 126.915C600.06 127.218 599.497 127.369 598.881 127.369Z" fill="black"/>
</svg>
