<svg width="256" height="84" viewBox="0 0 256 84" fill="none" xmlns="http://www.w3.org/2000/svg">

 <path d="M25.0511 58H12.1605V21.6364H25.1577C28.8153 21.6364 31.964 22.3643 34.6037 23.8203C37.2434 25.2644 39.2734 27.3419 40.6939 30.0526C42.1262 32.7633 42.8423 36.0066 42.8423 39.7827C42.8423 43.5705 42.1262 46.8258 40.6939 49.5483C39.2734 52.2708 37.2315 54.3601 34.5682 55.8161C31.9167 57.272 28.7443 58 25.0511 58ZM19.8487 51.4126H24.7315C27.0043 51.4126 28.916 51.0102 30.4666 50.2053C32.0291 49.3885 33.201 48.1278 33.9822 46.4233C34.7753 44.7069 35.1719 42.4934 35.1719 39.7827C35.1719 37.0956 34.7753 34.8999 33.9822 33.1953C33.201 31.4908 32.035 30.236 30.4844 29.4311C28.9337 28.6262 27.022 28.2237 24.7493 28.2237H19.8487V51.4126ZM48.5375 58V21.6364H62.8841C65.6303 21.6364 67.974 22.1276 69.9153 23.1101C71.8684 24.0807 73.354 25.4598 74.372 27.2472C75.4018 29.0227 75.9167 31.112 75.9167 33.5149C75.9167 35.9297 75.3959 38.0071 74.3542 39.7472C73.3126 41.4754 71.8033 42.8011 69.8265 43.7244C67.8616 44.6477 65.4823 45.1094 62.6887 45.1094H53.0829V38.9304H61.4458C62.9136 38.9304 64.1329 38.7292 65.1035 38.3267C66.0742 37.9242 66.7962 37.3205 67.2697 36.5156C67.755 35.7107 67.9977 34.7105 67.9977 33.5149C67.9977 32.3075 67.755 31.2895 67.2697 30.4609C66.7962 29.6323 66.0682 29.005 65.0858 28.5788C64.1151 28.1409 62.89 27.9219 61.4103 27.9219H56.2257V58H48.5375ZM68.1752 41.4517L77.2129 58H68.7257L59.8833 41.4517H68.1752ZM87.6177 58H79.3791L91.9324 21.6364H101.84L114.376 58H106.137L97.0282 29.946H96.7441L87.6177 58ZM87.1028 43.7067H106.563V49.7081H87.1028V43.7067ZM141.156 33.3906C140.907 32.5265 140.558 31.763 140.108 31.1001C139.658 30.4254 139.108 29.8572 138.457 29.3956C137.817 28.9221 137.084 28.5611 136.255 28.3125C135.438 28.0639 134.533 27.9396 133.538 27.9396C131.68 27.9396 130.046 28.4013 128.638 29.3246C127.241 30.2479 126.152 31.5914 125.371 33.3551C124.589 35.107 124.199 37.2495 124.199 39.7827C124.199 42.3158 124.584 44.4702 125.353 46.2457C126.122 48.0213 127.211 49.3767 128.62 50.3118C130.029 51.2351 131.692 51.6967 133.609 51.6967C135.349 51.6967 136.835 51.389 138.066 50.7734C139.309 50.1461 140.256 49.2642 140.907 48.1278C141.57 46.9915 141.901 45.648 141.901 44.0973L143.464 44.3281H134.089V38.5398H149.305V43.1207C149.305 46.3168 148.631 49.063 147.281 51.3594C145.932 53.6439 144.073 55.4077 141.706 56.6506C139.339 57.8816 136.628 58.4972 133.574 58.4972C130.165 58.4972 127.17 57.7455 124.589 56.2422C122.009 54.727 119.997 52.5786 118.553 49.7969C117.12 47.0033 116.404 43.6889 116.404 39.8537C116.404 36.9062 116.83 34.2784 117.683 31.9702C118.547 29.6501 119.754 27.6851 121.305 26.0753C122.855 24.4654 124.661 23.2403 126.72 22.3999C128.78 21.5594 131.011 21.1392 133.414 21.1392C135.474 21.1392 137.391 21.4411 139.167 22.0447C140.942 22.6366 142.517 23.477 143.89 24.5661C145.275 25.6551 146.405 26.9512 147.281 28.4545C148.157 29.946 148.719 31.5914 148.968 33.3906H141.156ZM188.497 39.8182C188.497 43.7836 187.745 47.1572 186.242 49.9389C184.75 52.7206 182.714 54.8454 180.134 56.3132C177.565 57.7692 174.677 58.4972 171.469 58.4972C168.237 58.4972 165.337 57.7633 162.769 56.2955C160.2 54.8277 158.17 52.7029 156.678 49.9212C155.187 47.1394 154.441 43.7718 154.441 39.8182C154.441 35.8527 155.187 32.4792 156.678 29.6974C158.17 26.9157 160.2 24.7969 162.769 23.3409C165.337 21.8731 168.237 21.1392 171.469 21.1392C174.677 21.1392 177.565 21.8731 180.134 23.3409C182.714 24.7969 184.75 26.9157 186.242 29.6974C187.745 32.4792 188.497 35.8527 188.497 39.8182ZM180.702 39.8182C180.702 37.2495 180.317 35.0833 179.548 33.3196C178.79 31.5559 177.719 30.2183 176.334 29.3068C174.949 28.3954 173.327 27.9396 171.469 27.9396C169.61 27.9396 167.989 28.3954 166.604 29.3068C165.219 30.2183 164.142 31.5559 163.372 33.3196C162.615 35.0833 162.236 37.2495 162.236 39.8182C162.236 42.3868 162.615 44.553 163.372 46.3168C164.142 48.0805 165.219 49.4181 166.604 50.3295C167.989 51.241 169.61 51.6967 171.469 51.6967C173.327 51.6967 174.949 51.241 176.334 50.3295C177.719 49.4181 178.79 48.0805 179.548 46.3168C180.317 44.553 180.702 42.3868 180.702 39.8182ZM224.607 21.6364V58H217.967L202.146 35.1129H201.88V58H194.192V21.6364H200.939L216.635 44.5057H216.955V21.6364H224.607Z" fill="#FF0202"/>

  <mask id="mask0_11_23" style="mask-type:alpha" maskUnits="userSpaceOnUse" x="0" y="6" width="240" height="75">
   <rect y="6" width="240" height="75" fill="#D9D9D9"/>
  </mask>

 <g mask="url(#mask0_11_23)"> </g>

  <mask id="mask1_11_23" style="mask-type:alpha" maskUnits="userSpaceOnUse" x="3" y="0" width="253" height="81">
   <rect x="3" width="253" height="81" fill="#D9D9D9"/>
  </mask>
  
 <g mask="url(#mask1_11_23)"> </g>

</svg>