<svg width="901" height="80" viewBox="0 0 901 80" fill="none" xmlns="http://www.w3.org/2000/svg">
<path d="M0.647727 3.81818H14.4261L27.6932 28.875H28.2614L41.5284 3.81818H55.3068L34.0852 41.4318V62H21.8693V41.4318L0.647727 3.81818ZM72.3736 62.8523C67.9607 62.8523 64.1444 61.9148 60.9247 60.0398C57.724 58.1458 55.2524 55.5133 53.5099 52.142C51.7675 48.7519 50.8963 44.822 50.8963 40.3523C50.8963 35.8447 51.7675 31.9053 53.5099 28.5341C55.2524 25.1439 57.724 22.5114 60.9247 20.6364C64.1444 18.7424 67.9607 17.7955 72.3736 17.7955C76.7865 17.7955 80.5933 18.7424 83.794 20.6364C87.0137 22.5114 89.4948 25.1439 91.2372 28.5341C92.9796 31.9053 93.8509 35.8447 93.8509 40.3523C93.8509 44.822 92.9796 48.7519 91.2372 52.142C89.4948 55.5133 87.0137 58.1458 83.794 60.0398C80.5933 61.9148 76.7865 62.8523 72.3736 62.8523ZM72.4304 53.4773C74.438 53.4773 76.1141 52.9091 77.4588 51.7727C78.8035 50.6174 79.8168 49.0455 80.4986 47.0568C81.1993 45.0682 81.5497 42.8049 81.5497 40.267C81.5497 37.7292 81.1993 35.4659 80.4986 33.4773C79.8168 31.4886 78.8035 29.9167 77.4588 28.7614C76.1141 27.6061 74.438 27.0284 72.4304 27.0284C70.4039 27.0284 68.6993 27.6061 67.3168 28.7614C65.9531 29.9167 64.9209 31.4886 64.2202 33.4773C63.5384 35.4659 63.1974 37.7292 63.1974 40.267C63.1974 42.8049 63.5384 45.0682 64.2202 47.0568C64.9209 49.0455 65.9531 50.6174 67.3168 51.7727C68.6993 52.9091 70.4039 53.4773 72.4304 53.4773ZM129.703 43.4205V18.3636H141.805V62H130.186V54.0739H129.732C128.747 56.6307 127.108 58.6856 124.817 60.2386C122.544 61.7917 119.769 62.5682 116.493 62.5682C113.576 62.5682 111.01 61.9053 108.794 60.5795C106.578 59.2538 104.845 57.3693 103.595 54.9261C102.364 52.483 101.739 49.5568 101.72 46.1477V18.3636H113.822V43.9886C113.841 46.5644 114.533 48.6004 115.896 50.0966C117.26 51.5928 119.088 52.3409 121.379 52.3409C122.838 52.3409 124.201 52.0095 125.47 51.3466C126.739 50.6648 127.762 49.661 128.538 48.3352C129.334 47.0095 129.722 45.3712 129.703 43.4205ZM210.683 18.3636L195.428 62H181.791L166.536 18.3636H179.32L188.382 49.5852H188.837L197.871 18.3636H210.683ZM216.876 62V18.3636H228.979V62H216.876ZM222.956 12.7386C221.157 12.7386 219.613 12.142 218.325 10.9489C217.056 9.73674 216.422 8.28788 216.422 6.60227C216.422 4.9356 217.056 3.50568 218.325 2.3125C219.613 1.10038 221.157 0.494315 222.956 0.494315C224.755 0.494315 226.289 1.10038 227.558 2.3125C228.846 3.50568 229.49 4.9356 229.49 6.60227C229.49 8.28788 228.846 9.73674 227.558 10.9489C226.289 12.142 224.755 12.7386 222.956 12.7386ZM274.98 30.8068L263.901 31.4886C263.711 30.5417 263.304 29.6894 262.679 28.9318C262.054 28.1553 261.23 27.5398 260.207 27.0852C259.204 26.6117 258.001 26.375 256.599 26.375C254.724 26.375 253.143 26.7727 251.855 27.5682C250.567 28.3447 249.923 29.3864 249.923 30.6932C249.923 31.7348 250.34 32.6155 251.173 33.3352C252.007 34.0549 253.437 34.6326 255.463 35.0682L263.361 36.6591C267.603 37.5303 270.766 38.9318 272.849 40.8636C274.933 42.7955 275.974 45.3333 275.974 48.4773C275.974 51.3371 275.132 53.8466 273.446 56.0057C271.779 58.1648 269.488 59.8504 266.571 61.0625C263.673 62.2557 260.33 62.8523 256.543 62.8523C250.766 62.8523 246.164 61.6496 242.736 59.2443C239.327 56.8201 237.329 53.5246 236.741 49.358L248.645 48.733C249.005 50.4943 249.876 51.839 251.259 52.767C252.641 53.6761 254.412 54.1307 256.571 54.1307C258.692 54.1307 260.397 53.7235 261.685 52.9091C262.991 52.0758 263.654 51.0057 263.673 49.6989C263.654 48.6004 263.19 47.7008 262.281 47C261.372 46.2803 259.971 45.7311 258.077 45.3523L250.52 43.8466C246.259 42.9943 243.086 41.517 241.003 39.4148C238.938 37.3125 237.906 34.6326 237.906 31.375C237.906 28.572 238.664 26.1572 240.179 24.1307C241.713 22.1042 243.863 20.5417 246.628 19.4432C249.412 18.3447 252.67 17.7955 256.401 17.7955C261.912 17.7955 266.249 18.9602 269.412 21.2898C272.594 23.6193 274.45 26.7917 274.98 30.8068ZM283.595 62V18.3636H295.697V62H283.595ZM289.675 12.7386C287.875 12.7386 286.332 12.142 285.044 10.9489C283.775 9.73674 283.141 8.28788 283.141 6.60227C283.141 4.9356 283.775 3.50568 285.044 2.3125C286.332 1.10038 287.875 0.494315 289.675 0.494315C291.474 0.494315 293.008 1.10038 294.277 2.3125C295.565 3.50568 296.209 4.9356 296.209 6.60227C296.209 8.28788 295.565 9.73674 294.277 10.9489C293.008 12.142 291.474 12.7386 289.675 12.7386ZM328.602 18.3636V27.4545H302.324V18.3636H328.602ZM308.29 7.90909H320.392V48.5909C320.392 49.7083 320.563 50.5795 320.903 51.2045C321.244 51.8106 321.718 52.2367 322.324 52.483C322.949 52.7292 323.669 52.8523 324.483 52.8523C325.051 52.8523 325.619 52.8049 326.188 52.7102C326.756 52.5966 327.191 52.5114 327.494 52.4545L329.398 61.4602C328.792 61.6496 327.939 61.8674 326.841 62.1136C325.742 62.3788 324.407 62.5398 322.835 62.5966C319.919 62.7102 317.362 62.322 315.165 61.4318C312.987 60.5417 311.292 59.1591 310.08 57.2841C308.867 55.4091 308.271 53.0417 308.29 50.1818V7.90909ZM355.903 62.8523C351.415 62.8523 347.551 61.9432 344.312 60.125C341.093 58.2879 338.612 55.6932 336.869 52.3409C335.127 48.9697 334.256 44.983 334.256 40.3807C334.256 35.892 335.127 31.9527 336.869 28.5625C338.612 25.1723 341.064 22.5303 344.227 20.6364C347.409 18.7424 351.14 17.7955 355.42 17.7955C358.299 17.7955 360.979 18.2595 363.46 19.1875C365.96 20.0966 368.138 21.4697 369.994 23.3068C371.869 25.1439 373.328 27.4545 374.369 30.2386C375.411 33.0038 375.932 36.2424 375.932 39.9545V43.2784H339.085V35.7784H364.54C364.54 34.036 364.161 32.4924 363.403 31.1477C362.646 29.803 361.595 28.7519 360.25 27.9943C358.924 27.2178 357.381 26.8295 355.619 26.8295C353.782 26.8295 352.153 27.2557 350.733 28.108C349.331 28.9413 348.233 30.0682 347.438 31.4886C346.642 32.8902 346.235 34.4527 346.216 36.1761V43.3068C346.216 45.4659 346.614 47.3314 347.409 48.9034C348.223 50.4754 349.369 51.6875 350.847 52.5398C352.324 53.392 354.076 53.8182 356.102 53.8182C357.447 53.8182 358.678 53.6288 359.795 53.25C360.913 52.8712 361.869 52.303 362.665 51.5455C363.46 50.7879 364.066 49.8598 364.483 48.7614L375.676 49.5C375.108 52.1894 373.943 54.5379 372.182 56.5455C370.439 58.5341 368.186 60.0871 365.42 61.2045C362.674 62.303 359.502 62.8523 355.903 62.8523ZM399.909 62.7102C396.595 62.7102 393.593 61.858 390.903 60.1534C388.233 58.4299 386.112 55.9015 384.54 52.5682C382.987 49.2159 382.21 45.1061 382.21 40.2386C382.21 35.2386 383.015 31.0814 384.625 27.767C386.235 24.4337 388.375 21.9432 391.045 20.2955C393.735 18.6288 396.68 17.7955 399.881 17.7955C402.324 17.7955 404.36 18.2121 405.989 19.0455C407.636 19.8598 408.962 20.8826 409.966 22.1136C410.989 23.3258 411.765 24.5189 412.295 25.6932H412.665V3.81818H424.739V62H412.807V55.0114H412.295C411.727 56.2235 410.922 57.4261 409.881 58.6193C408.858 59.7936 407.523 60.7689 405.875 61.5455C404.246 62.322 402.258 62.7102 399.909 62.7102ZM403.744 53.0795C405.695 53.0795 407.343 52.5492 408.688 51.4886C410.051 50.4091 411.093 48.9034 411.812 46.9716C412.551 45.0398 412.92 42.7765 412.92 40.1818C412.92 37.5871 412.561 35.3333 411.841 33.4205C411.121 31.5076 410.08 30.0303 408.716 28.9886C407.352 27.947 405.695 27.4261 403.744 27.4261C401.756 27.4261 400.08 27.9659 398.716 29.0455C397.352 30.125 396.32 31.6212 395.619 33.5341C394.919 35.447 394.568 37.6629 394.568 40.1818C394.568 42.7197 394.919 44.964 395.619 46.9148C396.339 48.8466 397.371 50.3617 398.716 51.4602C400.08 52.5398 401.756 53.0795 403.744 53.0795ZM476.415 18.3636V27.4545H450.136V18.3636H476.415ZM456.102 7.90909H468.205V48.5909C468.205 49.7083 468.375 50.5795 468.716 51.2045C469.057 51.8106 469.53 52.2367 470.136 52.483C470.761 52.7292 471.481 52.8523 472.295 52.8523C472.864 52.8523 473.432 52.8049 474 52.7102C474.568 52.5966 475.004 52.5114 475.307 52.4545L477.21 61.4602C476.604 61.6496 475.752 61.8674 474.653 62.1136C473.555 62.3788 472.22 62.5398 470.648 62.5966C467.731 62.7102 465.174 62.322 462.977 61.4318C460.799 60.5417 459.104 59.1591 457.892 57.2841C456.68 55.4091 456.083 53.0417 456.102 50.1818V7.90909ZM497.338 36.7727V62H485.236V3.81818H496.997V26.0625H497.509C498.493 23.4867 500.084 21.4697 502.281 20.0114C504.478 18.5341 507.234 17.7955 510.548 17.7955C513.579 17.7955 516.221 18.4583 518.474 19.7841C520.747 21.0909 522.509 22.9754 523.759 25.4375C525.027 27.8807 525.652 30.8068 525.634 34.2159V62H513.531V36.375C513.55 33.6856 512.868 31.5928 511.486 30.0966C510.122 28.6004 508.209 27.8523 505.747 27.8523C504.099 27.8523 502.641 28.2027 501.372 28.9034C500.122 29.6042 499.137 30.6269 498.418 31.9716C497.717 33.2973 497.357 34.8977 497.338 36.7727ZM555.044 62.8523C550.555 62.8523 546.692 61.9432 543.453 60.125C540.233 58.2879 537.752 55.6932 536.01 52.3409C534.268 48.9697 533.396 44.983 533.396 40.3807C533.396 35.892 534.268 31.9527 536.01 28.5625C537.752 25.1723 540.205 22.5303 543.368 20.6364C546.55 18.7424 550.281 17.7955 554.561 17.7955C557.44 17.7955 560.12 18.2595 562.601 19.1875C565.101 20.0966 567.279 21.4697 569.135 23.3068C571.01 25.1439 572.468 27.4545 573.51 30.2386C574.552 33.0038 575.072 36.2424 575.072 39.9545V43.2784H538.226V35.7784H563.68C563.68 34.036 563.302 32.4924 562.544 31.1477C561.786 29.803 560.735 28.7519 559.391 27.9943C558.065 27.2178 556.521 26.8295 554.76 26.8295C552.923 26.8295 551.294 27.2557 549.874 28.108C548.472 28.9413 547.374 30.0682 546.578 31.4886C545.783 32.8902 545.375 34.4527 545.357 36.1761V43.3068C545.357 45.4659 545.754 47.3314 546.55 48.9034C547.364 50.4754 548.51 51.6875 549.987 52.5398C551.464 53.392 553.216 53.8182 555.243 53.8182C556.588 53.8182 557.819 53.6288 558.936 53.25C560.054 52.8712 561.01 52.303 561.805 51.5455C562.601 50.7879 563.207 49.8598 563.624 48.7614L574.817 49.5C574.249 52.1894 573.084 54.5379 571.322 56.5455C569.58 58.5341 567.326 60.0871 564.561 61.2045C561.815 62.303 558.643 62.8523 555.044 62.8523ZM622.338 62H601.713V3.81818H622.509C628.361 3.81818 633.399 4.98295 637.622 7.3125C641.846 9.6231 645.094 12.947 647.366 17.2841C649.658 21.6212 650.804 26.8106 650.804 32.8523C650.804 38.9129 649.658 44.1212 647.366 48.4773C645.094 52.8333 641.827 56.1761 637.565 58.5057C633.323 60.8352 628.247 62 622.338 62ZM614.014 51.4602H621.827C625.463 51.4602 628.522 50.8163 631.003 49.5284C633.503 48.2216 635.378 46.2045 636.628 43.4773C637.897 40.7311 638.531 37.1894 638.531 32.8523C638.531 28.553 637.897 25.0398 636.628 22.3125C635.378 19.5852 633.512 17.5777 631.031 16.2898C628.55 15.0019 625.491 14.358 621.855 14.358H614.014V51.4602ZM659.689 62V18.3636H671.422V25.9773H671.876C672.672 23.2689 674.007 21.2235 675.882 19.8409C677.757 18.4394 679.916 17.7386 682.359 17.7386C682.965 17.7386 683.619 17.7765 684.32 17.8523C685.02 17.928 685.636 18.0322 686.166 18.1648V28.9034C685.598 28.733 684.812 28.5814 683.808 28.4489C682.804 28.3163 681.886 28.25 681.053 28.25C679.272 28.25 677.681 28.6383 676.28 29.4148C674.897 30.1723 673.799 31.233 672.984 32.5966C672.189 33.9602 671.791 35.5322 671.791 37.3125V62H659.689ZM703.616 62.8239C700.832 62.8239 698.351 62.3409 696.173 61.375C693.995 60.3902 692.272 58.9413 691.003 57.0284C689.753 55.0966 689.128 52.6913 689.128 49.8125C689.128 47.3883 689.573 45.3523 690.463 43.7045C691.353 42.0568 692.565 40.7311 694.099 39.7273C695.634 38.7235 697.376 37.9659 699.327 37.4545C701.296 36.9432 703.361 36.5833 705.52 36.375C708.058 36.1098 710.103 35.8636 711.656 35.6364C713.209 35.3902 714.336 35.0303 715.037 34.5568C715.738 34.0833 716.088 33.3826 716.088 32.4545V32.2841C716.088 30.4848 715.52 29.0928 714.384 28.108C713.266 27.1231 711.675 26.6307 709.611 26.6307C707.433 26.6307 705.7 27.1136 704.412 28.0795C703.124 29.0265 702.272 30.2197 701.855 31.6591L690.662 30.75C691.23 28.0985 692.348 25.8068 694.014 23.875C695.681 21.9242 697.83 20.428 700.463 19.3864C703.115 18.3258 706.183 17.7955 709.668 17.7955C712.092 17.7955 714.412 18.0795 716.628 18.6477C718.863 19.2159 720.842 20.0966 722.565 21.2898C724.308 22.483 725.681 24.017 726.685 25.892C727.688 27.7481 728.19 29.9735 728.19 32.5682V62H716.713V55.9489H716.372C715.671 57.3125 714.734 58.5152 713.56 59.5568C712.385 60.5795 710.974 61.3845 709.327 61.9716C707.679 62.5398 705.776 62.8239 703.616 62.8239ZM707.082 54.4716C708.863 54.4716 710.435 54.1212 711.798 53.4205C713.162 52.7008 714.232 51.7348 715.009 50.5227C715.785 49.3106 716.173 47.9375 716.173 46.4034V41.7727C715.795 42.0189 715.274 42.2462 714.611 42.4545C713.967 42.6439 713.238 42.8239 712.423 42.9943C711.609 43.1458 710.795 43.2879 709.98 43.4205C709.166 43.5341 708.427 43.6383 707.764 43.733C706.344 43.9413 705.103 44.2727 704.043 44.7273C702.982 45.1818 702.158 45.7973 701.571 46.5739C700.984 47.3314 700.69 48.2784 700.69 49.4148C700.69 51.0625 701.287 52.322 702.48 53.1932C703.692 54.0455 705.226 54.4716 707.082 54.4716ZM757.239 79.2727C753.318 79.2727 749.956 78.733 747.153 77.6534C744.369 76.5928 742.153 75.1439 740.506 73.3068C738.858 71.4697 737.788 69.4053 737.295 67.1136L748.489 65.608C748.83 66.4792 749.369 67.2936 750.108 68.0511C750.847 68.8087 751.822 69.4148 753.034 69.8693C754.265 70.3428 755.761 70.5795 757.523 70.5795C760.155 70.5795 762.324 69.9356 764.028 68.6477C765.752 67.3788 766.614 65.2481 766.614 62.2557V54.2727H766.102C765.572 55.4848 764.777 56.6307 763.716 57.7102C762.655 58.7898 761.292 59.6705 759.625 60.3523C757.958 61.0341 755.97 61.375 753.659 61.375C750.383 61.375 747.4 60.6174 744.71 59.1023C742.04 57.5682 739.909 55.2292 738.318 52.0852C736.746 48.9223 735.96 44.9261 735.96 40.0966C735.96 35.1534 736.765 31.0246 738.375 27.7102C739.985 24.3958 742.125 21.9148 744.795 20.267C747.485 18.6193 750.43 17.7955 753.631 17.7955C756.074 17.7955 758.119 18.2121 759.767 19.0455C761.415 19.8598 762.741 20.8826 763.744 22.1136C764.767 23.3258 765.553 24.5189 766.102 25.6932H766.557V18.3636H778.574V62.4261C778.574 66.1383 777.665 69.2443 775.847 71.7443C774.028 74.2443 771.509 76.1193 768.29 77.3693C765.089 78.6383 761.405 79.2727 757.239 79.2727ZM757.494 52.2841C759.445 52.2841 761.093 51.8011 762.438 50.8352C763.801 49.8504 764.843 48.4489 765.562 46.6307C766.301 44.7936 766.67 42.5966 766.67 40.0398C766.67 37.483 766.311 35.267 765.591 33.392C764.871 31.4981 763.83 30.0303 762.466 28.9886C761.102 27.947 759.445 27.4261 757.494 27.4261C755.506 27.4261 753.83 27.9659 752.466 29.0455C751.102 30.1061 750.07 31.5833 749.369 33.4773C748.669 35.3712 748.318 37.5587 748.318 40.0398C748.318 42.5587 748.669 44.7367 749.369 46.5739C750.089 48.392 751.121 49.803 752.466 50.8068C753.83 51.7917 755.506 52.2841 757.494 52.2841ZM807.92 62.8523C803.508 62.8523 799.691 61.9148 796.472 60.0398C793.271 58.1458 790.799 55.5133 789.057 52.142C787.314 48.7519 786.443 44.822 786.443 40.3523C786.443 35.8447 787.314 31.9053 789.057 28.5341C790.799 25.1439 793.271 22.5114 796.472 20.6364C799.691 18.7424 803.508 17.7955 807.92 17.7955C812.333 17.7955 816.14 18.7424 819.341 20.6364C822.561 22.5114 825.042 25.1439 826.784 28.5341C828.527 31.9053 829.398 35.8447 829.398 40.3523C829.398 44.822 828.527 48.7519 826.784 52.142C825.042 55.5133 822.561 58.1458 819.341 60.0398C816.14 61.9148 812.333 62.8523 807.92 62.8523ZM807.977 53.4773C809.985 53.4773 811.661 52.9091 813.006 51.7727C814.35 50.6174 815.364 49.0455 816.045 47.0568C816.746 45.0682 817.097 42.8049 817.097 40.267C817.097 37.7292 816.746 35.4659 816.045 33.4773C815.364 31.4886 814.35 29.9167 813.006 28.7614C811.661 27.6061 809.985 27.0284 807.977 27.0284C805.951 27.0284 804.246 27.6061 802.864 28.7614C801.5 29.9167 800.468 31.4886 799.767 33.4773C799.085 35.4659 798.744 37.7292 798.744 40.267C798.744 42.8049 799.085 45.0682 799.767 47.0568C800.468 49.0455 801.5 50.6174 802.864 51.7727C804.246 52.9091 805.951 53.4773 807.977 53.4773ZM849.369 36.7727V62H837.267V18.3636H848.801V26.0625H849.312C850.278 23.5246 851.898 21.517 854.17 20.0398C856.443 18.5436 859.199 17.7955 862.438 17.7955C865.468 17.7955 868.11 18.4583 870.364 19.7841C872.617 21.1098 874.369 23.0038 875.619 25.4659C876.869 27.9091 877.494 30.8258 877.494 34.2159V62H865.392V36.375C865.411 33.7045 864.729 31.6212 863.347 30.125C861.964 28.6098 860.061 27.8523 857.636 27.8523C856.008 27.8523 854.568 28.2027 853.318 28.9034C852.087 29.6042 851.121 30.6269 850.42 31.9716C849.739 33.2973 849.388 34.8977 849.369 36.7727ZM894.107 62.7386C892.232 62.7386 890.622 62.0758 889.277 60.75C887.951 59.4053 887.288 57.7955 887.288 55.9205C887.288 54.0644 887.951 52.4735 889.277 51.1477C890.622 49.822 892.232 49.1591 894.107 49.1591C895.925 49.1591 897.516 49.822 898.879 51.1477C900.243 52.4735 900.925 54.0644 900.925 55.9205C900.925 57.1705 900.603 58.3163 899.959 59.358C899.334 60.3807 898.51 61.2045 897.487 61.8295C896.464 62.4356 895.338 62.7386 894.107 62.7386Z" fill="black"/>
</svg>
